%TF.GenerationSoftware,KiCad,Pcbnew,8.0.8*%
%TF.CreationDate,2025-04-03T11:47:51-04:00*%
%TF.ProjectId,DC Load,4443204c-6f61-4642-9e6b-696361645f70,rev?*%
%TF.SameCoordinates,Original*%
%TF.FileFunction,Soldermask,Bot*%
%TF.FilePolarity,Negative*%
%FSLAX46Y46*%
G04 Gerber Fmt 4.6, Leading zero omitted, Abs format (unit mm)*
G04 Created by KiCad (PCBNEW 8.0.8) date 2025-04-03 11:47:51*
%MOMM*%
%LPD*%
G01*
G04 APERTURE LIST*
G04 Aperture macros list*
%AMFreePoly0*
4,1,25,0.427955,0.971196,0.440078,0.960842,0.960842,0.440078,0.989349,0.384130,0.990600,0.368236,0.990600,-0.368236,0.971196,-0.427955,0.960842,-0.440078,0.440078,-0.960842,0.384130,-0.989349,0.368236,-0.990600,-0.368236,-0.990600,-0.427955,-0.971196,-0.440078,-0.960842,-0.960842,-0.440078,-0.989349,-0.384130,-0.990600,-0.368236,-0.990600,0.368236,-0.971196,0.427955,-0.960842,0.440078,
-0.440078,0.960842,-0.384130,0.989349,-0.368236,0.990600,0.368236,0.990600,0.427955,0.971196,0.427955,0.971196,$1*%
G04 Aperture macros list end*
%ADD10O,1.700000X1.700000*%
%ADD11R,1.700000X1.700000*%
%ADD12C,1.950000*%
%ADD13R,1.950000X1.950000*%
%ADD14C,3.200000*%
%ADD15C,2.800000*%
%ADD16C,1.300000*%
%ADD17R,1.300000X1.300000*%
%ADD18C,1.303000*%
%ADD19C,1.725000*%
%ADD20R,1.725000X1.725000*%
%ADD21R,1.905000X4.500000*%
%ADD22O,1.905000X4.500000*%
%ADD23R,1.500000X1.500000*%
%ADD24C,1.500000*%
%ADD25R,1.635000X1.635000*%
%ADD26C,1.635000*%
%ADD27C,2.100000*%
%ADD28C,2.550000*%
%ADD29R,1.600000X1.600000*%
%ADD30O,1.600000X1.600000*%
%ADD31O,2.701600X2.001600*%
%ADD32C,3.403200*%
%ADD33C,1.981200*%
%ADD34FreePoly0,180.000000*%
%ADD35C,2.387600*%
%ADD36R,3.750000X3.750000*%
%ADD37C,3.750000*%
G04 APERTURE END LIST*
D10*
%TO.C,J2*%
X55375000Y-154780000D03*
X55375000Y-157320000D03*
X55375000Y-159860000D03*
D11*
X55375000Y-162400000D03*
%TD*%
D12*
%TO.C,J1*%
X62500000Y-188200000D03*
X62500000Y-180000000D03*
X57500000Y-188200000D03*
D13*
X57500000Y-180000000D03*
%TD*%
D14*
%TO.C,H6*%
X250000000Y-194700000D03*
%TD*%
%TO.C,H5*%
X45000000Y-194700000D03*
%TD*%
%TO.C,H4*%
X45000000Y-34700000D03*
%TD*%
%TO.C,H3*%
X250000000Y-34700000D03*
%TD*%
D15*
%TO.C,TP25*%
X121488600Y-125650000D03*
%TD*%
D16*
%TO.C,PS4*%
X129470000Y-175450000D03*
X126930000Y-175450000D03*
X124390000Y-175450000D03*
D17*
X121850000Y-175450000D03*
%TD*%
D18*
%TO.C,RV1*%
X48520000Y-113460000D03*
X58680000Y-116000000D03*
X48520000Y-118540000D03*
%TD*%
D19*
%TO.C,L4*%
X104250000Y-80250000D03*
X104250000Y-82250000D03*
%TD*%
D20*
%TO.C,PS2*%
X90405000Y-48400000D03*
D19*
X92945000Y-48400000D03*
X98025000Y-48400000D03*
X103105000Y-48400000D03*
%TD*%
D12*
%TO.C,J4*%
X55600000Y-87400000D03*
X63800000Y-87400000D03*
X55600000Y-82400000D03*
D13*
X63800000Y-82400000D03*
%TD*%
D21*
%TO.C,Q1*%
X168647000Y-52300000D03*
D22*
X163567000Y-52300000D03*
X161027000Y-52300000D03*
X158487000Y-52300000D03*
%TD*%
D19*
%TO.C,L2*%
X217800000Y-163290000D03*
X215800000Y-163290000D03*
%TD*%
D23*
%TO.C,PS3*%
X90600000Y-89400000D03*
D24*
X93140000Y-89400000D03*
X98220000Y-89400000D03*
X100760000Y-89400000D03*
X103300000Y-89400000D03*
%TD*%
D15*
%TO.C,TP20*%
X200250000Y-161350000D03*
%TD*%
D19*
%TO.C,PS1*%
X209790000Y-179420000D03*
X217410000Y-179420000D03*
X217410000Y-171800000D03*
X212330000Y-171800000D03*
%TD*%
D15*
%TO.C,TP16*%
X56550000Y-105550000D03*
%TD*%
%TO.C,TP23*%
X180238096Y-95328200D03*
%TD*%
%TO.C,TP17*%
X79388600Y-43311600D03*
%TD*%
%TO.C,TP15*%
X201238096Y-181428200D03*
%TD*%
D18*
%TO.C,RV3*%
X49120000Y-140060000D03*
X59280000Y-142600000D03*
X49120000Y-145140000D03*
%TD*%
D25*
%TO.C,D3*%
X218020000Y-59030000D03*
D26*
X218020000Y-51530000D03*
%TD*%
D15*
%TO.C,TP21*%
X110588600Y-73311600D03*
%TD*%
D18*
%TO.C,RV2*%
X48920000Y-127260000D03*
X59080000Y-129800000D03*
X48920000Y-132340000D03*
%TD*%
D15*
%TO.C,TP14*%
X100400000Y-167550000D03*
%TD*%
D18*
%TO.C,RV4*%
X208340000Y-130877500D03*
X218500000Y-128337500D03*
X208340000Y-125797500D03*
%TD*%
D19*
%TO.C,L3*%
X116155000Y-92150000D03*
X116155000Y-94150000D03*
%TD*%
D15*
%TO.C,TP18*%
X219488600Y-91861600D03*
%TD*%
D19*
%TO.C,L1*%
X106700000Y-63900000D03*
X104700000Y-63900000D03*
%TD*%
D15*
%TO.C,TP24*%
X112688600Y-40961600D03*
%TD*%
D13*
%TO.C,J3*%
X63600000Y-66000000D03*
D12*
X55400000Y-66000000D03*
X63600000Y-71000000D03*
X55400000Y-71000000D03*
%TD*%
D27*
%TO.C,J5*%
X230700000Y-60060000D03*
X230700000Y-50540000D03*
D28*
X227100000Y-55300000D03*
X240500000Y-55300000D03*
%TD*%
D15*
%TO.C,TP19*%
X136650000Y-146300000D03*
%TD*%
D29*
%TO.C,A1*%
X85600000Y-167800000D03*
D30*
X85600000Y-165260000D03*
X85600000Y-162720000D03*
X85600000Y-160180000D03*
X85600000Y-157640000D03*
X85600000Y-155100000D03*
X85600000Y-152560000D03*
X85600000Y-150020000D03*
X85600000Y-147480000D03*
X85600000Y-144940000D03*
X85600000Y-142400000D03*
X85600000Y-139860000D03*
X85600000Y-137320000D03*
X85600000Y-134780000D03*
X85600000Y-132240000D03*
X70360000Y-132240000D03*
X70360000Y-134780000D03*
X70360000Y-137320000D03*
X70360000Y-139860000D03*
X70360000Y-142400000D03*
X70360000Y-144940000D03*
X70360000Y-147480000D03*
X70360000Y-150020000D03*
X70360000Y-152560000D03*
X70360000Y-155100000D03*
X70360000Y-157640000D03*
X70360000Y-160180000D03*
X70360000Y-162720000D03*
X70360000Y-165260000D03*
X70360000Y-167800000D03*
%TD*%
D15*
%TO.C,TP12*%
X107500000Y-185600000D03*
%TD*%
%TO.C,TP22*%
X101950000Y-99000000D03*
%TD*%
%TO.C,TP13*%
X90350000Y-136600000D03*
%TD*%
D13*
%TO.C,J7*%
X63200000Y-49200000D03*
D12*
X55000000Y-49200000D03*
X63200000Y-54200000D03*
X55000000Y-54200000D03*
%TD*%
D31*
%TO.C,R3*%
X201100000Y-82600000D03*
X206180000Y-82600000D03*
X213800000Y-82600000D03*
X218880000Y-82600000D03*
%TD*%
D32*
%TO.C,IC16*%
X122301100Y-118720000D03*
X122301100Y-103480000D03*
D33*
X107061100Y-119990000D03*
X107061100Y-117450000D03*
X107061100Y-114910000D03*
X107061100Y-112370000D03*
X107061100Y-109830000D03*
X107061100Y-107290000D03*
X107061100Y-104750000D03*
D34*
X107061100Y-102210000D03*
D35*
X121158100Y-109300000D03*
X121158100Y-112800000D03*
%TD*%
D36*
%TO.C,H2*%
X185490000Y-56800000D03*
D37*
X141647000Y-56800000D03*
%TD*%
D36*
%TO.C,H1*%
X176400000Y-56800000D03*
D37*
X151000000Y-56800000D03*
%TD*%
M02*
