%TF.GenerationSoftware,KiCad,Pcbnew,8.0.8*%
%TF.CreationDate,2025-04-03T11:47:51-04:00*%
%TF.ProjectId,DC Load,4443204c-6f61-4642-9e6b-696361645f70,rev?*%
%TF.SameCoordinates,Original*%
%TF.FileFunction,Soldermask,Top*%
%TF.FilePolarity,Negative*%
%FSLAX46Y46*%
G04 Gerber Fmt 4.6, Leading zero omitted, Abs format (unit mm)*
G04 Created by KiCad (PCBNEW 8.0.8) date 2025-04-03 11:47:51*
%MOMM*%
%LPD*%
G01*
G04 APERTURE LIST*
G04 Aperture macros list*
%AMRoundRect*
0 Rectangle with rounded corners*
0 $1 Rounding radius*
0 $2 $3 $4 $5 $6 $7 $8 $9 X,Y pos of 4 corners*
0 Add a 4 corners polygon primitive as box body*
4,1,4,$2,$3,$4,$5,$6,$7,$8,$9,$2,$3,0*
0 Add four circle primitives for the rounded corners*
1,1,$1+$1,$2,$3*
1,1,$1+$1,$4,$5*
1,1,$1+$1,$6,$7*
1,1,$1+$1,$8,$9*
0 Add four rect primitives between the rounded corners*
20,1,$1+$1,$2,$3,$4,$5,0*
20,1,$1+$1,$4,$5,$6,$7,0*
20,1,$1+$1,$6,$7,$8,$9,0*
20,1,$1+$1,$8,$9,$2,$3,0*%
%AMFreePoly0*
4,1,9,3.862500,-0.866500,0.737500,-0.866500,0.737500,-0.450000,-0.737500,-0.450000,-0.737500,0.450000,0.737500,0.450000,0.737500,0.866500,3.862500,0.866500,3.862500,-0.866500,3.862500,-0.866500,$1*%
%AMFreePoly1*
4,1,25,0.427955,0.971196,0.440078,0.960842,0.960842,0.440078,0.989349,0.384130,0.990600,0.368236,0.990600,-0.368236,0.971196,-0.427955,0.960842,-0.440078,0.440078,-0.960842,0.384130,-0.989349,0.368236,-0.990600,-0.368236,-0.990600,-0.427955,-0.971196,-0.440078,-0.960842,-0.960842,-0.440078,-0.989349,-0.384130,-0.990600,-0.368236,-0.990600,0.368236,-0.971196,0.427955,-0.960842,0.440078,
-0.440078,0.960842,-0.384130,0.989349,-0.368236,0.990600,0.368236,0.990600,0.427955,0.971196,0.427955,0.971196,$1*%
G04 Aperture macros list end*
%ADD10O,1.700000X1.700000*%
%ADD11R,1.700000X1.700000*%
%ADD12C,1.950000*%
%ADD13R,1.950000X1.950000*%
%ADD14C,3.200000*%
%ADD15RoundRect,0.225000X0.250000X-0.225000X0.250000X0.225000X-0.250000X0.225000X-0.250000X-0.225000X0*%
%ADD16C,2.800000*%
%ADD17RoundRect,0.237500X0.237500X-0.987996X0.237500X0.987996X-0.237500X0.987996X-0.237500X-0.987996X0*%
%ADD18R,2.150000X2.300000*%
%ADD19RoundRect,0.250000X-0.250000X-0.475000X0.250000X-0.475000X0.250000X0.475000X-0.250000X0.475000X0*%
%ADD20RoundRect,0.237500X-0.987996X-0.237500X0.987996X-0.237500X0.987996X0.237500X-0.987996X0.237500X0*%
%ADD21C,1.300000*%
%ADD22R,1.300000X1.300000*%
%ADD23RoundRect,0.225000X0.225000X0.250000X-0.225000X0.250000X-0.225000X-0.250000X0.225000X-0.250000X0*%
%ADD24RoundRect,0.225000X-0.250000X0.225000X-0.250000X-0.225000X0.250000X-0.225000X0.250000X0.225000X0*%
%ADD25C,1.303000*%
%ADD26C,1.725000*%
%ADD27R,1.725000X1.725000*%
%ADD28R,1.905000X4.500000*%
%ADD29O,1.905000X4.500000*%
%ADD30RoundRect,0.225000X-0.225000X-0.250000X0.225000X-0.250000X0.225000X0.250000X-0.225000X0.250000X0*%
%ADD31R,1.500000X1.500000*%
%ADD32C,1.500000*%
%ADD33RoundRect,0.250000X0.250000X0.475000X-0.250000X0.475000X-0.250000X-0.475000X0.250000X-0.475000X0*%
%ADD34RoundRect,0.225000X-0.425000X-0.225000X0.425000X-0.225000X0.425000X0.225000X-0.425000X0.225000X0*%
%ADD35FreePoly0,0.000000*%
%ADD36RoundRect,0.250000X0.625000X-0.312500X0.625000X0.312500X-0.625000X0.312500X-0.625000X-0.312500X0*%
%ADD37RoundRect,0.250000X-0.475000X0.250000X-0.475000X-0.250000X0.475000X-0.250000X0.475000X0.250000X0*%
%ADD38R,1.635000X1.635000*%
%ADD39C,1.635000*%
%ADD40RoundRect,0.250000X-0.625000X0.312500X-0.625000X-0.312500X0.625000X-0.312500X0.625000X0.312500X0*%
%ADD41RoundRect,0.250000X0.475000X-0.250000X0.475000X0.250000X-0.475000X0.250000X-0.475000X-0.250000X0*%
%ADD42R,1.200000X1.200000*%
%ADD43C,2.100000*%
%ADD44C,2.550000*%
%ADD45R,1.600000X1.600000*%
%ADD46O,1.600000X1.600000*%
%ADD47RoundRect,0.250000X0.312500X0.625000X-0.312500X0.625000X-0.312500X-0.625000X0.312500X-0.625000X0*%
%ADD48RoundRect,0.250000X0.262500X0.450000X-0.262500X0.450000X-0.262500X-0.450000X0.262500X-0.450000X0*%
%ADD49RoundRect,0.250000X-1.425000X0.362500X-1.425000X-0.362500X1.425000X-0.362500X1.425000X0.362500X0*%
%ADD50O,2.701600X2.001600*%
%ADD51R,1.528000X0.435000*%
%ADD52C,3.403200*%
%ADD53C,1.981200*%
%ADD54FreePoly1,180.000000*%
%ADD55C,2.387600*%
%ADD56R,0.450000X1.200000*%
%ADD57R,1.400000X0.450000*%
%ADD58R,1.525000X0.650000*%
%ADD59R,0.650000X1.525000*%
%ADD60R,0.450000X1.400000*%
%ADD61R,0.450000X1.475000*%
%ADD62R,3.750000X3.750000*%
%ADD63C,3.750000*%
%ADD64RoundRect,0.250000X-0.650000X0.325000X-0.650000X-0.325000X0.650000X-0.325000X0.650000X0.325000X0*%
%ADD65RoundRect,0.250000X0.650000X-0.325000X0.650000X0.325000X-0.650000X0.325000X-0.650000X-0.325000X0*%
%ADD66RoundRect,0.250000X0.325000X1.100000X-0.325000X1.100000X-0.325000X-1.100000X0.325000X-1.100000X0*%
%ADD67RoundRect,0.250000X-0.325000X-0.650000X0.325000X-0.650000X0.325000X0.650000X-0.325000X0.650000X0*%
G04 APERTURE END LIST*
D10*
%TO.C,J2*%
X55375000Y-154780000D03*
X55375000Y-157320000D03*
X55375000Y-159860000D03*
D11*
X55375000Y-162400000D03*
%TD*%
D12*
%TO.C,J1*%
X62500000Y-188200000D03*
X62500000Y-180000000D03*
X57500000Y-188200000D03*
D13*
X57500000Y-180000000D03*
%TD*%
D14*
%TO.C,H6*%
X250000000Y-194700000D03*
%TD*%
%TO.C,H5*%
X45000000Y-194700000D03*
%TD*%
%TO.C,H4*%
X45000000Y-34700000D03*
%TD*%
%TO.C,H3*%
X250000000Y-34700000D03*
%TD*%
D15*
%TO.C,C56*%
X199200000Y-121625000D03*
X199200000Y-123175000D03*
%TD*%
D16*
%TO.C,TP25*%
X121488600Y-125650000D03*
%TD*%
D17*
%TO.C,TP37*%
X158271800Y-78738096D03*
%TD*%
D18*
%TO.C,D1*%
X50500000Y-173050000D03*
X50500000Y-168750000D03*
%TD*%
D19*
%TO.C,C26*%
X209300000Y-165090000D03*
X207400000Y-165090000D03*
%TD*%
D20*
%TO.C,TP27*%
X132200000Y-137300000D03*
%TD*%
%TO.C,TP2*%
X81950000Y-120300000D03*
%TD*%
%TO.C,TP3*%
X100200504Y-112833400D03*
%TD*%
D17*
%TO.C,TP38*%
X161321800Y-84388096D03*
%TD*%
D20*
%TO.C,TP8*%
X136500000Y-159150000D03*
%TD*%
%TO.C,TP6*%
X136050000Y-156050000D03*
%TD*%
D15*
%TO.C,C3*%
X140400000Y-120825000D03*
X140400000Y-122375000D03*
%TD*%
D21*
%TO.C,PS4*%
X129470000Y-175450000D03*
X126930000Y-175450000D03*
X124390000Y-175450000D03*
D22*
X121850000Y-175450000D03*
%TD*%
D20*
%TO.C,TP4*%
X88200000Y-110850000D03*
%TD*%
D15*
%TO.C,C51*%
X209120000Y-138052500D03*
X209120000Y-139602500D03*
%TD*%
D23*
%TO.C,C2*%
X153600000Y-123000000D03*
X155150000Y-123000000D03*
%TD*%
D24*
%TO.C,C15*%
X152900000Y-161775000D03*
X152900000Y-160225000D03*
%TD*%
D20*
%TO.C,TP32*%
X200750000Y-104950000D03*
%TD*%
%TO.C,TP28*%
X127650504Y-137883400D03*
%TD*%
D23*
%TO.C,C36*%
X215625000Y-152290000D03*
X217175000Y-152290000D03*
%TD*%
D17*
%TO.C,TP1*%
X103083400Y-107449496D03*
%TD*%
D15*
%TO.C,C44*%
X160250000Y-143850000D03*
X160250000Y-145400000D03*
%TD*%
D25*
%TO.C,RV1*%
X48520000Y-113460000D03*
X58680000Y-116000000D03*
X48520000Y-118540000D03*
%TD*%
D26*
%TO.C,L4*%
X104250000Y-80250000D03*
X104250000Y-82250000D03*
%TD*%
D20*
%TO.C,TP34*%
X209600504Y-93783400D03*
%TD*%
%TO.C,TP9*%
X136350000Y-152500000D03*
%TD*%
D27*
%TO.C,PS2*%
X90405000Y-48400000D03*
D26*
X92945000Y-48400000D03*
X98025000Y-48400000D03*
X103105000Y-48400000D03*
%TD*%
D12*
%TO.C,J4*%
X55600000Y-87400000D03*
X63800000Y-87400000D03*
X55600000Y-82400000D03*
D13*
X63800000Y-82400000D03*
%TD*%
D28*
%TO.C,Q1*%
X168647000Y-52300000D03*
D29*
X163567000Y-52300000D03*
X161027000Y-52300000D03*
X158487000Y-52300000D03*
%TD*%
D30*
%TO.C,C58*%
X118775000Y-137400000D03*
X117225000Y-137400000D03*
%TD*%
D26*
%TO.C,L2*%
X217800000Y-163290000D03*
X215800000Y-163290000D03*
%TD*%
D31*
%TO.C,PS3*%
X90600000Y-89400000D03*
D32*
X93140000Y-89400000D03*
X98220000Y-89400000D03*
X100760000Y-89400000D03*
X103300000Y-89400000D03*
%TD*%
D16*
%TO.C,TP20*%
X200250000Y-161350000D03*
%TD*%
D33*
%TO.C,C1*%
X155375000Y-117775000D03*
X153475000Y-117775000D03*
%TD*%
D26*
%TO.C,PS1*%
X209790000Y-179420000D03*
X217410000Y-179420000D03*
X217410000Y-171800000D03*
X212330000Y-171800000D03*
%TD*%
D20*
%TO.C,TP31*%
X174250504Y-129183400D03*
%TD*%
D15*
%TO.C,C7*%
X160125000Y-170200000D03*
X160125000Y-171750000D03*
%TD*%
D20*
%TO.C,TP35*%
X228650504Y-92833400D03*
%TD*%
D30*
%TO.C,C46*%
X169775000Y-124200000D03*
X168225000Y-124200000D03*
%TD*%
D16*
%TO.C,TP16*%
X56550000Y-105550000D03*
%TD*%
D23*
%TO.C,C52*%
X110225000Y-136800000D03*
X111775000Y-136800000D03*
%TD*%
D15*
%TO.C,C47*%
X168800000Y-127625000D03*
X168800000Y-129175000D03*
%TD*%
D20*
%TO.C,TP30*%
X221800504Y-99383400D03*
%TD*%
D16*
%TO.C,TP23*%
X180238096Y-95328200D03*
%TD*%
D34*
%TO.C,U1*%
X124650000Y-86600000D03*
D35*
X124737500Y-88100000D03*
D34*
X124650000Y-89600000D03*
%TD*%
D36*
%TO.C,R1*%
X159200000Y-96137500D03*
X159200000Y-99062500D03*
%TD*%
D37*
%TO.C,C12*%
X136200000Y-129150000D03*
X136200000Y-127250000D03*
%TD*%
D16*
%TO.C,TP17*%
X79388600Y-43311600D03*
%TD*%
%TO.C,TP15*%
X201238096Y-181428200D03*
%TD*%
D20*
%TO.C,TP7*%
X134700504Y-150133400D03*
%TD*%
D25*
%TO.C,RV3*%
X49120000Y-140060000D03*
X59280000Y-142600000D03*
X49120000Y-145140000D03*
%TD*%
D24*
%TO.C,C64*%
X69800000Y-114775000D03*
X69800000Y-113225000D03*
%TD*%
D38*
%TO.C,D3*%
X218020000Y-59030000D03*
D39*
X218020000Y-51530000D03*
%TD*%
D20*
%TO.C,TP29*%
X127850504Y-144383400D03*
%TD*%
D16*
%TO.C,TP21*%
X110588600Y-73311600D03*
%TD*%
D23*
%TO.C,C53*%
X119500000Y-152900000D03*
X121050000Y-152900000D03*
%TD*%
D25*
%TO.C,RV2*%
X48920000Y-127260000D03*
X59080000Y-129800000D03*
X48920000Y-132340000D03*
%TD*%
D19*
%TO.C,C32*%
X188500000Y-134800000D03*
X186600000Y-134800000D03*
%TD*%
D20*
%TO.C,TP5*%
X88050000Y-123350000D03*
%TD*%
%TO.C,TP11*%
X185300000Y-104000000D03*
%TD*%
D16*
%TO.C,TP14*%
X100400000Y-167550000D03*
%TD*%
D15*
%TO.C,C41*%
X162600000Y-136775000D03*
X162600000Y-138325000D03*
%TD*%
D25*
%TO.C,RV4*%
X208340000Y-130877500D03*
X218500000Y-128337500D03*
X208340000Y-125797500D03*
%TD*%
D26*
%TO.C,L3*%
X116155000Y-92150000D03*
X116155000Y-94150000D03*
%TD*%
D40*
%TO.C,R2*%
X201250000Y-129612500D03*
X201250000Y-126687500D03*
%TD*%
D16*
%TO.C,TP18*%
X219488600Y-91861600D03*
%TD*%
D26*
%TO.C,L1*%
X106700000Y-63900000D03*
X104700000Y-63900000D03*
%TD*%
D24*
%TO.C,C18*%
X148400000Y-173275000D03*
X148400000Y-171725000D03*
%TD*%
D41*
%TO.C,C31*%
X160200000Y-103050000D03*
X160200000Y-104950000D03*
%TD*%
D42*
%TO.C,D2*%
X170600000Y-91600000D03*
X170600000Y-88800000D03*
%TD*%
D24*
%TO.C,C8*%
X142600000Y-132175000D03*
X142600000Y-130625000D03*
%TD*%
D23*
%TO.C,C65*%
X88725000Y-117100000D03*
X90275000Y-117100000D03*
%TD*%
D15*
%TO.C,C62*%
X226800000Y-104575000D03*
X226800000Y-106125000D03*
%TD*%
D24*
%TO.C,C16*%
X161000000Y-158375000D03*
X161000000Y-156825000D03*
%TD*%
D20*
%TO.C,TP33*%
X201800504Y-94733400D03*
%TD*%
%TO.C,TP26*%
X122200000Y-138950000D03*
%TD*%
D24*
%TO.C,C48*%
X167397125Y-136125000D03*
X167397125Y-134575000D03*
%TD*%
%TO.C,C11*%
X140400000Y-128775000D03*
X140400000Y-127225000D03*
%TD*%
D16*
%TO.C,TP24*%
X112688600Y-40961600D03*
%TD*%
D24*
%TO.C,C61*%
X207200000Y-113275000D03*
X207200000Y-111725000D03*
%TD*%
D20*
%TO.C,TP36*%
X235050504Y-92683400D03*
%TD*%
D13*
%TO.C,J3*%
X63600000Y-66000000D03*
D12*
X55400000Y-66000000D03*
X63600000Y-71000000D03*
X55400000Y-71000000D03*
%TD*%
D43*
%TO.C,J5*%
X230700000Y-60060000D03*
X230700000Y-50540000D03*
D44*
X227100000Y-55300000D03*
X240500000Y-55300000D03*
%TD*%
D16*
%TO.C,TP19*%
X136650000Y-146300000D03*
%TD*%
D45*
%TO.C,A1*%
X85600000Y-167800000D03*
D46*
X85600000Y-165260000D03*
X85600000Y-162720000D03*
X85600000Y-160180000D03*
X85600000Y-157640000D03*
X85600000Y-155100000D03*
X85600000Y-152560000D03*
X85600000Y-150020000D03*
X85600000Y-147480000D03*
X85600000Y-144940000D03*
X85600000Y-142400000D03*
X85600000Y-139860000D03*
X85600000Y-137320000D03*
X85600000Y-134780000D03*
X85600000Y-132240000D03*
X70360000Y-132240000D03*
X70360000Y-134780000D03*
X70360000Y-137320000D03*
X70360000Y-139860000D03*
X70360000Y-142400000D03*
X70360000Y-144940000D03*
X70360000Y-147480000D03*
X70360000Y-150020000D03*
X70360000Y-152560000D03*
X70360000Y-155100000D03*
X70360000Y-157640000D03*
X70360000Y-160180000D03*
X70360000Y-162720000D03*
X70360000Y-165260000D03*
X70360000Y-167800000D03*
%TD*%
D15*
%TO.C,C45*%
X160400000Y-150625000D03*
X160400000Y-152175000D03*
%TD*%
D16*
%TO.C,TP12*%
X107500000Y-185600000D03*
%TD*%
D20*
%TO.C,TP10*%
X220750000Y-105100000D03*
%TD*%
D16*
%TO.C,TP22*%
X101950000Y-99000000D03*
%TD*%
%TO.C,TP13*%
X90350000Y-136600000D03*
%TD*%
D13*
%TO.C,J7*%
X63200000Y-49200000D03*
D12*
X55000000Y-49200000D03*
X63200000Y-54200000D03*
X55000000Y-54200000D03*
%TD*%
D24*
%TO.C,C67*%
X101200000Y-103500000D03*
X101200000Y-105050000D03*
%TD*%
D15*
%TO.C,C68*%
X100700000Y-117950000D03*
X100700000Y-116400000D03*
%TD*%
D47*
%TO.C,R6*%
X110762500Y-124300000D03*
X107837500Y-124300000D03*
%TD*%
D48*
%TO.C,R5*%
X237040000Y-84477500D03*
X235215000Y-84477500D03*
%TD*%
D49*
%TO.C,R4*%
X242700000Y-68137500D03*
X242700000Y-74062500D03*
%TD*%
D50*
%TO.C,R3*%
X201100000Y-82600000D03*
X206180000Y-82600000D03*
X213800000Y-82600000D03*
X218880000Y-82600000D03*
%TD*%
D51*
%TO.C,IC18*%
X92789000Y-118778000D03*
X92789000Y-119412000D03*
X92789000Y-120048000D03*
X92789000Y-120682000D03*
X92789000Y-121318000D03*
X92789000Y-121952000D03*
X92789000Y-122588000D03*
X92789000Y-123222000D03*
X98211000Y-123222000D03*
X98211000Y-122588000D03*
X98211000Y-121952000D03*
X98211000Y-121318000D03*
X98211000Y-120682000D03*
X98211000Y-120048000D03*
X98211000Y-119412000D03*
X98211000Y-118778000D03*
%TD*%
%TO.C,IC17*%
X92789000Y-104078000D03*
X92789000Y-104712000D03*
X92789000Y-105348000D03*
X92789000Y-105982000D03*
X92789000Y-106618000D03*
X92789000Y-107252000D03*
X92789000Y-107888000D03*
X92789000Y-108522000D03*
X98211000Y-108522000D03*
X98211000Y-107888000D03*
X98211000Y-107252000D03*
X98211000Y-106618000D03*
X98211000Y-105982000D03*
X98211000Y-105348000D03*
X98211000Y-104712000D03*
X98211000Y-104078000D03*
%TD*%
D52*
%TO.C,IC16*%
X122301100Y-118720000D03*
X122301100Y-103480000D03*
D53*
X107061100Y-119990000D03*
X107061100Y-117450000D03*
X107061100Y-114910000D03*
X107061100Y-112370000D03*
X107061100Y-109830000D03*
X107061100Y-107290000D03*
X107061100Y-104750000D03*
D54*
X107061100Y-102210000D03*
D55*
X121158100Y-109300000D03*
X121158100Y-112800000D03*
%TD*%
D56*
%TO.C,IC15*%
X199625000Y-99145000D03*
X198975000Y-99145000D03*
X198325000Y-99145000D03*
X197675000Y-99145000D03*
X197675000Y-101645000D03*
X198325000Y-101645000D03*
X198975000Y-101645000D03*
X199625000Y-101645000D03*
%TD*%
D57*
%TO.C,IC14*%
X201680000Y-116120000D03*
X201680000Y-116770000D03*
X201680000Y-117420000D03*
X201680000Y-118070000D03*
X206080000Y-118070000D03*
X206080000Y-117420000D03*
X206080000Y-116770000D03*
X206080000Y-116120000D03*
%TD*%
D58*
%TO.C,IC13*%
X231812000Y-101655000D03*
X231812000Y-100385000D03*
X231812000Y-99115000D03*
X231812000Y-97845000D03*
X226388000Y-97845000D03*
X226388000Y-99115000D03*
X226388000Y-100385000D03*
X226388000Y-101655000D03*
%TD*%
D51*
%TO.C,IC12*%
X121489000Y-155978000D03*
X121489000Y-156612000D03*
X121489000Y-157248000D03*
X121489000Y-157882000D03*
X121489000Y-158518000D03*
X121489000Y-159152000D03*
X121489000Y-159788000D03*
X121489000Y-160422000D03*
X126911000Y-160422000D03*
X126911000Y-159788000D03*
X126911000Y-159152000D03*
X126911000Y-158518000D03*
X126911000Y-157882000D03*
X126911000Y-157248000D03*
X126911000Y-156612000D03*
X126911000Y-155978000D03*
%TD*%
%TO.C,IC11*%
X112032625Y-141181375D03*
X112032625Y-141815375D03*
X112032625Y-142451375D03*
X112032625Y-143085375D03*
X112032625Y-143721375D03*
X112032625Y-144355375D03*
X112032625Y-144991375D03*
X112032625Y-145625375D03*
X117454625Y-145625375D03*
X117454625Y-144991375D03*
X117454625Y-144355375D03*
X117454625Y-143721375D03*
X117454625Y-143085375D03*
X117454625Y-142451375D03*
X117454625Y-141815375D03*
X117454625Y-141181375D03*
%TD*%
D57*
%TO.C,IC10*%
X193220000Y-136362500D03*
X193220000Y-137012500D03*
X193220000Y-137662500D03*
X193220000Y-138312500D03*
X197620000Y-138312500D03*
X197620000Y-137662500D03*
X197620000Y-137012500D03*
X197620000Y-136362500D03*
%TD*%
D59*
%TO.C,IC9*%
X138005000Y-96388000D03*
X136735000Y-96388000D03*
X135465000Y-96388000D03*
X134195000Y-96388000D03*
X134195000Y-101812000D03*
X135465000Y-101812000D03*
X136735000Y-101812000D03*
X138005000Y-101812000D03*
%TD*%
%TO.C,IC8*%
X211305000Y-148978000D03*
X210035000Y-148978000D03*
X208765000Y-148978000D03*
X207495000Y-148978000D03*
X207495000Y-154402000D03*
X208765000Y-154402000D03*
X210035000Y-154402000D03*
X211305000Y-154402000D03*
%TD*%
%TO.C,IC7*%
X64183000Y-109877000D03*
X65453000Y-109877000D03*
X66723000Y-109877000D03*
X67993000Y-109877000D03*
X67993000Y-104453000D03*
X66723000Y-104453000D03*
X65453000Y-104453000D03*
X64183000Y-104453000D03*
%TD*%
D58*
%TO.C,IC6*%
X140512000Y-168205000D03*
X140512000Y-166935000D03*
X140512000Y-165665000D03*
X140512000Y-164395000D03*
X135088000Y-164395000D03*
X135088000Y-165665000D03*
X135088000Y-166935000D03*
X135088000Y-168205000D03*
%TD*%
D60*
%TO.C,IC5*%
X165025000Y-106000000D03*
X165675000Y-106000000D03*
X166325000Y-106000000D03*
X166975000Y-106000000D03*
X166975000Y-101600000D03*
X166325000Y-101600000D03*
X165675000Y-101600000D03*
X165025000Y-101600000D03*
%TD*%
D61*
%TO.C,IC4*%
X144350000Y-157200000D03*
X145000000Y-157200000D03*
X145650000Y-157200000D03*
X146300000Y-157200000D03*
X146950000Y-157200000D03*
X147600000Y-157200000D03*
X148250000Y-157200000D03*
X148900000Y-157200000D03*
X149550000Y-157200000D03*
X150200000Y-157200000D03*
X150850000Y-157200000D03*
X151500000Y-157200000D03*
X151500000Y-151324000D03*
X150850000Y-151324000D03*
X150200000Y-151324000D03*
X149550000Y-151324000D03*
X148900000Y-151324000D03*
X148250000Y-151324000D03*
X147600000Y-151324000D03*
X146950000Y-151324000D03*
X146300000Y-151324000D03*
X145650000Y-151324000D03*
X145000000Y-151324000D03*
X144350000Y-151324000D03*
%TD*%
D57*
%TO.C,IC3*%
X150525000Y-167950000D03*
X150525000Y-167300000D03*
X150525000Y-166650000D03*
X150525000Y-166000000D03*
X146125000Y-166000000D03*
X146125000Y-166650000D03*
X146125000Y-167300000D03*
X146125000Y-167950000D03*
%TD*%
D58*
%TO.C,IC2*%
X126818875Y-127193625D03*
X126818875Y-128463625D03*
X126818875Y-129733625D03*
X126818875Y-131003625D03*
X126818875Y-132273625D03*
X126818875Y-133543625D03*
X126818875Y-134813625D03*
X132242875Y-134813625D03*
X132242875Y-133543625D03*
X132242875Y-132273625D03*
X132242875Y-131003625D03*
X132242875Y-129733625D03*
X132242875Y-128463625D03*
X132242875Y-127193625D03*
%TD*%
D57*
%TO.C,IC1*%
X149400000Y-116800000D03*
X149400000Y-116150000D03*
X149400000Y-115500000D03*
X149400000Y-114850000D03*
X145000000Y-114850000D03*
X145000000Y-115500000D03*
X145000000Y-116150000D03*
X145000000Y-116800000D03*
%TD*%
D62*
%TO.C,H2*%
X185490000Y-56800000D03*
D63*
X141647000Y-56800000D03*
%TD*%
D62*
%TO.C,H1*%
X176400000Y-56800000D03*
D63*
X151000000Y-56800000D03*
%TD*%
D23*
%TO.C,C66*%
X89975000Y-102400000D03*
X88425000Y-102400000D03*
%TD*%
D64*
%TO.C,C63*%
X212700000Y-110225000D03*
X212700000Y-113175000D03*
%TD*%
D41*
%TO.C,C60*%
X232000000Y-106650000D03*
X232000000Y-104750000D03*
%TD*%
D15*
%TO.C,C59*%
X128589000Y-153953000D03*
X128589000Y-152403000D03*
%TD*%
D23*
%TO.C,C57*%
X190575000Y-108800000D03*
X189025000Y-108800000D03*
%TD*%
D65*
%TO.C,C55*%
X194400000Y-124675000D03*
X194400000Y-121725000D03*
%TD*%
D41*
%TO.C,C54*%
X195000000Y-107150000D03*
X195000000Y-105250000D03*
%TD*%
%TO.C,C50*%
X203620000Y-139777500D03*
X203620000Y-137877500D03*
%TD*%
D15*
%TO.C,C49*%
X171300000Y-139675000D03*
X171300000Y-138125000D03*
%TD*%
D65*
%TO.C,C43*%
X155400000Y-152875000D03*
X155400000Y-149925000D03*
%TD*%
%TO.C,C42*%
X155450000Y-146875000D03*
X155450000Y-143925000D03*
%TD*%
D15*
%TO.C,C40*%
X162800000Y-131750000D03*
X162800000Y-130200000D03*
%TD*%
D30*
%TO.C,C39*%
X186600000Y-139800000D03*
X188150000Y-139800000D03*
%TD*%
%TO.C,C38*%
X135425000Y-88850000D03*
X136975000Y-88850000D03*
%TD*%
D15*
%TO.C,C37*%
X142850000Y-99525000D03*
X142850000Y-97975000D03*
%TD*%
D30*
%TO.C,C35*%
X139590000Y-171990000D03*
X141140000Y-171990000D03*
%TD*%
D65*
%TO.C,C34*%
X155150000Y-105275000D03*
X155150000Y-102325000D03*
%TD*%
D66*
%TO.C,C33*%
X161275000Y-89800000D03*
X158325000Y-89800000D03*
%TD*%
D15*
%TO.C,C30*%
X152700000Y-175375000D03*
X152700000Y-173825000D03*
%TD*%
D41*
%TO.C,C29*%
X172600000Y-108500000D03*
X172600000Y-106600000D03*
%TD*%
%TO.C,C28*%
X118550000Y-83300000D03*
X118550000Y-81400000D03*
%TD*%
D19*
%TO.C,C27*%
X128750000Y-99780000D03*
X130650000Y-99780000D03*
%TD*%
D33*
%TO.C,C25*%
X157750000Y-174300000D03*
X155850000Y-174300000D03*
%TD*%
D41*
%TO.C,C24*%
X135800000Y-174250000D03*
X135800000Y-172350000D03*
%TD*%
D65*
%TO.C,C23*%
X178000000Y-109475000D03*
X178000000Y-106525000D03*
%TD*%
%TO.C,C22*%
X111600000Y-83825000D03*
X111600000Y-80875000D03*
%TD*%
D67*
%TO.C,C21*%
X128525000Y-96100000D03*
X131475000Y-96100000D03*
%TD*%
D19*
%TO.C,C20*%
X207400000Y-159090000D03*
X209300000Y-159090000D03*
%TD*%
D65*
%TO.C,C19*%
X112300000Y-66450000D03*
X112300000Y-63500000D03*
%TD*%
D37*
%TO.C,C17*%
X138500000Y-133350000D03*
X138500000Y-135250000D03*
%TD*%
D24*
%TO.C,C13*%
X156000000Y-163825000D03*
X156000000Y-165375000D03*
%TD*%
D64*
%TO.C,C9*%
X161400000Y-163125000D03*
X161400000Y-166075000D03*
%TD*%
D41*
%TO.C,C6*%
X154625000Y-171175000D03*
X154625000Y-169275000D03*
%TD*%
D37*
%TO.C,C5*%
X135000000Y-120850000D03*
X135000000Y-122750000D03*
%TD*%
D41*
%TO.C,C4*%
X145400000Y-122350000D03*
X145400000Y-120450000D03*
%TD*%
M02*
