ISO-10303-21;
HEADER;
/* Generated by software containing ST-Developer
 * from STEP Tools, Inc. (www.steptools.com) 
 */
/* OPTION: strings as raw bytes, not using required /X/ escapes */

FILE_DESCRIPTION(
/* description */ ('Unknown'),
/* implementation_level */ '2;1');

FILE_NAME(
/* name */ '5010',
/* time_stamp */ '2023-05-05T11:37:01+02:00',
/* author */ ('Unknown'),
/* organization */ ('Unknown'),
/* preprocessor_version */ 'ST-DEVELOPER v18.1',
/* originating_system */ 'Solid Edge',
/* authorisation */ 'Unknown');

FILE_SCHEMA (('AUTOMOTIVE_DESIGN {1 0 10303 214 3 1 1}'));
ENDSEC;

DATA;
#10=PROPERTY_DEFINITION_REPRESENTATION(#14,#12);
#11=PROPERTY_DEFINITION_REPRESENTATION(#15,#13);
#12=REPRESENTATION('',(#16),#2096);
#13=REPRESENTATION('',(#17),#2096);
#14=PROPERTY_DEFINITION('pmi validation property','',#2101);
#15=PROPERTY_DEFINITION('pmi validation property','',#2101);
#16=VALUE_REPRESENTATION_ITEM('number of annotations',COUNT_MEASURE(0.));
#17=VALUE_REPRESENTATION_ITEM('number of views',COUNT_MEASURE(0.));
#18=SHAPE_REPRESENTATION_RELATIONSHIP('','',#1404,#19);
#19=ADVANCED_BREP_SHAPE_REPRESENTATION('',(#1402),#2096);
#20=CYLINDRICAL_SURFACE('',#1418,2.53780272847981);
#21=CYLINDRICAL_SURFACE('',#1419,2.03780272847981);
#22=CYLINDRICAL_SURFACE('',#1422,1.61630866910773);
#23=CYLINDRICAL_SURFACE('',#1423,2.11630866910773);
#24=CYLINDRICAL_SURFACE('',#1429,1.6);
#25=CYLINDRICAL_SURFACE('',#1431,0.791949584726284);
#26=CYLINDRICAL_SURFACE('',#1435,1.12076972182119);
#27=CYLINDRICAL_SURFACE('',#1439,1.12076972182119);
#28=CYLINDRICAL_SURFACE('',#1443,0.791949584726284);
#29=CYLINDRICAL_SURFACE('',#1448,0.291949584726284);
#30=CYLINDRICAL_SURFACE('',#1452,0.620769721821193);
#31=CYLINDRICAL_SURFACE('',#1456,0.620769721821193);
#32=CYLINDRICAL_SURFACE('',#1460,0.291949584726283);
#33=CYLINDRICAL_SURFACE('',#1464,0.681903925877669);
#34=CYLINDRICAL_SURFACE('',#1467,0.181903925877669);
#35=CYLINDRICAL_SURFACE('',#1470,0.681903925877669);
#36=CYLINDRICAL_SURFACE('',#1473,0.181903925877668);
#37=CYLINDRICAL_SURFACE('',#1482,2.03780272847981);
#38=CYLINDRICAL_SURFACE('',#1488,2.53780272847981);
#39=CYLINDRICAL_SURFACE('',#1493,1.61630866910773);
#40=CYLINDRICAL_SURFACE('',#1496,2.11630866910773);
#41=LINE('',#1802,#145);
#42=LINE('',#1806,#146);
#43=LINE('',#1810,#147);
#44=LINE('',#1812,#148);
#45=LINE('',#1814,#149);
#46=LINE('',#1818,#150);
#47=LINE('',#1823,#151);
#48=LINE('',#1827,#152);
#49=LINE('',#1831,#153);
#50=LINE('',#1833,#154);
#51=LINE('',#1835,#155);
#52=LINE('',#1839,#156);
#53=LINE('',#1841,#157);
#54=LINE('',#1842,#158);
#55=LINE('',#1844,#159);
#56=LINE('',#1845,#160);
#57=LINE('',#1847,#161);
#58=LINE('',#1849,#162);
#59=LINE('',#1851,#163);
#60=LINE('',#1853,#164);
#61=LINE('',#1855,#165);
#62=LINE('',#1857,#166);
#63=LINE('',#1860,#167);
#64=LINE('',#1863,#168);
#65=LINE('',#1865,#169);
#66=LINE('',#1867,#170);
#67=LINE('',#1870,#171);
#68=LINE('',#1873,#172);
#69=LINE('',#1875,#173);
#70=LINE('',#1877,#174);
#71=LINE('',#1879,#175);
#72=LINE('',#1882,#176);
#73=LINE('',#1884,#177);
#74=LINE('',#1886,#178);
#75=LINE('',#1891,#179);
#76=LINE('',#1894,#180);
#77=LINE('',#1896,#181);
#78=LINE('',#1898,#182);
#79=LINE('',#1900,#183);
#80=LINE('',#1906,#184);
#81=LINE('',#1909,#185);
#82=LINE('',#1910,#186);
#83=LINE('',#1912,#187);
#84=LINE('',#1918,#188);
#85=LINE('',#1920,#189);
#86=LINE('',#1922,#190);
#87=LINE('',#1924,#191);
#88=LINE('',#1930,#192);
#89=LINE('',#1933,#193);
#90=LINE('',#1934,#194);
#91=LINE('',#1936,#195);
#92=LINE('',#1942,#196);
#93=LINE('',#1945,#197);
#94=LINE('',#1946,#198);
#95=LINE('',#1948,#199);
#96=LINE('',#1951,#200);
#97=LINE('',#1953,#201);
#98=LINE('',#1955,#202);
#99=LINE('',#1959,#203);
#100=LINE('',#1963,#204);
#101=LINE('',#1965,#205);
#102=LINE('',#1967,#206);
#103=LINE('',#1971,#207);
#104=LINE('',#1975,#208);
#105=LINE('',#1977,#209);
#106=LINE('',#1979,#210);
#107=LINE('',#1983,#211);
#108=LINE('',#1987,#212);
#109=LINE('',#1989,#213);
#110=LINE('',#1991,#214);
#111=LINE('',#1995,#215);
#112=LINE('',#1999,#216);
#113=LINE('',#2001,#217);
#114=LINE('',#2003,#218);
#115=LINE('',#2007,#219);
#116=LINE('',#2013,#220);
#117=LINE('',#2021,#221);
#118=LINE('',#2023,#222);
#119=LINE('',#2029,#223);
#120=LINE('',#2030,#224);
#121=LINE('',#2032,#225);
#122=LINE('',#2033,#226);
#123=LINE('',#2035,#227);
#124=LINE('',#2036,#228);
#125=LINE('',#2038,#229);
#126=LINE('',#2039,#230);
#127=LINE('',#2046,#231);
#128=LINE('',#2050,#232);
#129=LINE('',#2052,#233);
#130=LINE('',#2054,#234);
#131=LINE('',#2056,#235);
#132=LINE('',#2058,#236);
#133=LINE('',#2061,#237);
#134=LINE('',#2062,#238);
#135=LINE('',#2064,#239);
#136=LINE('',#2067,#240);
#137=LINE('',#2068,#241);
#138=LINE('',#2070,#242);
#139=LINE('',#2076,#243);
#140=LINE('',#2078,#244);
#141=LINE('',#2080,#245);
#142=LINE('',#2082,#246);
#143=LINE('',#2085,#247);
#144=LINE('',#2086,#248);
#145=VECTOR('',#1507,1000.);
#146=VECTOR('',#1510,1000.);
#147=VECTOR('',#1513,1000.);
#148=VECTOR('',#1514,1000.);
#149=VECTOR('',#1515,1000.);
#150=VECTOR('',#1518,1000.);
#151=VECTOR('',#1523,1000.);
#152=VECTOR('',#1526,1000.);
#153=VECTOR('',#1529,1000.);
#154=VECTOR('',#1530,1000.);
#155=VECTOR('',#1531,1000.);
#156=VECTOR('',#1534,1000.);
#157=VECTOR('',#1537,1000.);
#158=VECTOR('',#1538,1000.);
#159=VECTOR('',#1541,1000.);
#160=VECTOR('',#1542,1000.);
#161=VECTOR('',#1545,1000.);
#162=VECTOR('',#1548,1000.);
#163=VECTOR('',#1551,1000.);
#164=VECTOR('',#1554,1000.);
#165=VECTOR('',#1557,1000.);
#166=VECTOR('',#1560,1000.);
#167=VECTOR('',#1565,1000.);
#168=VECTOR('',#1566,1000.);
#169=VECTOR('',#1567,1000.);
#170=VECTOR('',#1568,1000.);
#171=VECTOR('',#1571,1000.);
#172=VECTOR('',#1572,1000.);
#173=VECTOR('',#1573,1000.);
#174=VECTOR('',#1574,1000.);
#175=VECTOR('',#1577,1000.);
#176=VECTOR('',#1578,1000.);
#177=VECTOR('',#1579,1000.);
#178=VECTOR('',#1580,1000.);
#179=VECTOR('',#1587,1000.);
#180=VECTOR('',#1588,1000.);
#181=VECTOR('',#1589,1000.);
#182=VECTOR('',#1590,1000.);
#183=VECTOR('',#1593,1000.);
#184=VECTOR('',#1600,1000.);
#185=VECTOR('',#1601,1000.);
#186=VECTOR('',#1602,1000.);
#187=VECTOR('',#1605,1000.);
#188=VECTOR('',#1612,1000.);
#189=VECTOR('',#1613,1000.);
#190=VECTOR('',#1614,1000.);
#191=VECTOR('',#1617,1000.);
#192=VECTOR('',#1624,1000.);
#193=VECTOR('',#1625,1000.);
#194=VECTOR('',#1626,1000.);
#195=VECTOR('',#1629,1000.);
#196=VECTOR('',#1636,1000.);
#197=VECTOR('',#1637,1000.);
#198=VECTOR('',#1638,1000.);
#199=VECTOR('',#1641,1000.);
#200=VECTOR('',#1642,1000.);
#201=VECTOR('',#1643,1000.);
#202=VECTOR('',#1644,1000.);
#203=VECTOR('',#1649,1000.);
#204=VECTOR('',#1654,1000.);
#205=VECTOR('',#1655,1000.);
#206=VECTOR('',#1656,1000.);
#207=VECTOR('',#1661,1000.);
#208=VECTOR('',#1666,1000.);
#209=VECTOR('',#1667,1000.);
#210=VECTOR('',#1668,1000.);
#211=VECTOR('',#1673,1000.);
#212=VECTOR('',#1678,1000.);
#213=VECTOR('',#1679,1000.);
#214=VECTOR('',#1680,1000.);
#215=VECTOR('',#1685,1000.);
#216=VECTOR('',#1690,1000.);
#217=VECTOR('',#1691,1000.);
#218=VECTOR('',#1692,1000.);
#219=VECTOR('',#1697,1000.);
#220=VECTOR('',#1704,1000.);
#221=VECTOR('',#1713,1000.);
#222=VECTOR('',#1716,1000.);
#223=VECTOR('',#1723,1000.);
#224=VECTOR('',#1724,1000.);
#225=VECTOR('',#1727,1000.);
#226=VECTOR('',#1728,1000.);
#227=VECTOR('',#1731,1000.);
#228=VECTOR('',#1732,1000.);
#229=VECTOR('',#1735,1000.);
#230=VECTOR('',#1736,1000.);
#231=VECTOR('',#1745,1000.);
#232=VECTOR('',#1748,1000.);
#233=VECTOR('',#1751,1000.);
#234=VECTOR('',#1752,1000.);
#235=VECTOR('',#1753,1000.);
#236=VECTOR('',#1756,1000.);
#237=VECTOR('',#1757,1000.);
#238=VECTOR('',#1758,1000.);
#239=VECTOR('',#1761,1000.);
#240=VECTOR('',#1762,1000.);
#241=VECTOR('',#1763,1000.);
#242=VECTOR('',#1766,1000.);
#243=VECTOR('',#1773,1000.);
#244=VECTOR('',#1774,1000.);
#245=VECTOR('',#1775,1000.);
#246=VECTOR('',#1778,1000.);
#247=VECTOR('',#1779,1000.);
#248=VECTOR('',#1780,1000.);
#249=ORIENTED_EDGE('',*,*,#541,.F.);
#250=ORIENTED_EDGE('',*,*,#542,.T.);
#251=ORIENTED_EDGE('',*,*,#543,.T.);
#252=ORIENTED_EDGE('',*,*,#544,.T.);
#253=ORIENTED_EDGE('',*,*,#545,.T.);
#254=ORIENTED_EDGE('',*,*,#546,.T.);
#255=ORIENTED_EDGE('',*,*,#547,.T.);
#256=ORIENTED_EDGE('',*,*,#548,.F.);
#257=ORIENTED_EDGE('',*,*,#549,.F.);
#258=ORIENTED_EDGE('',*,*,#550,.F.);
#259=ORIENTED_EDGE('',*,*,#551,.F.);
#260=ORIENTED_EDGE('',*,*,#552,.T.);
#261=ORIENTED_EDGE('',*,*,#553,.T.);
#262=ORIENTED_EDGE('',*,*,#554,.T.);
#263=ORIENTED_EDGE('',*,*,#555,.T.);
#264=ORIENTED_EDGE('',*,*,#556,.T.);
#265=ORIENTED_EDGE('',*,*,#557,.T.);
#266=ORIENTED_EDGE('',*,*,#558,.F.);
#267=ORIENTED_EDGE('',*,*,#559,.F.);
#268=ORIENTED_EDGE('',*,*,#560,.F.);
#269=ORIENTED_EDGE('',*,*,#561,.T.);
#270=ORIENTED_EDGE('',*,*,#546,.F.);
#271=ORIENTED_EDGE('',*,*,#562,.F.);
#272=ORIENTED_EDGE('',*,*,#558,.T.);
#273=ORIENTED_EDGE('',*,*,#556,.F.);
#274=ORIENTED_EDGE('',*,*,#563,.F.);
#275=ORIENTED_EDGE('',*,*,#548,.T.);
#276=ORIENTED_EDGE('',*,*,#564,.T.);
#277=ORIENTED_EDGE('',*,*,#562,.T.);
#278=ORIENTED_EDGE('',*,*,#545,.F.);
#279=ORIENTED_EDGE('',*,*,#565,.F.);
#280=ORIENTED_EDGE('',*,*,#559,.T.);
#281=ORIENTED_EDGE('',*,*,#555,.F.);
#282=ORIENTED_EDGE('',*,*,#566,.F.);
#283=ORIENTED_EDGE('',*,*,#549,.T.);
#284=ORIENTED_EDGE('',*,*,#563,.T.);
#285=ORIENTED_EDGE('',*,*,#565,.T.);
#286=ORIENTED_EDGE('',*,*,#544,.F.);
#287=ORIENTED_EDGE('',*,*,#567,.F.);
#288=ORIENTED_EDGE('',*,*,#560,.T.);
#289=ORIENTED_EDGE('',*,*,#554,.F.);
#290=ORIENTED_EDGE('',*,*,#568,.F.);
#291=ORIENTED_EDGE('',*,*,#550,.T.);
#292=ORIENTED_EDGE('',*,*,#566,.T.);
#293=ORIENTED_EDGE('',*,*,#543,.F.);
#294=ORIENTED_EDGE('',*,*,#569,.T.);
#295=ORIENTED_EDGE('',*,*,#551,.T.);
#296=ORIENTED_EDGE('',*,*,#567,.T.);
#297=ORIENTED_EDGE('',*,*,#553,.F.);
#298=ORIENTED_EDGE('',*,*,#570,.T.);
#299=ORIENTED_EDGE('',*,*,#541,.T.);
#300=ORIENTED_EDGE('',*,*,#568,.T.);
#301=ORIENTED_EDGE('',*,*,#561,.F.);
#302=ORIENTED_EDGE('',*,*,#557,.F.);
#303=ORIENTED_EDGE('',*,*,#564,.F.);
#304=ORIENTED_EDGE('',*,*,#547,.F.);
#305=ORIENTED_EDGE('',*,*,#571,.F.);
#306=ORIENTED_EDGE('',*,*,#572,.F.);
#307=ORIENTED_EDGE('',*,*,#573,.F.);
#308=ORIENTED_EDGE('',*,*,#574,.F.);
#309=ORIENTED_EDGE('',*,*,#575,.T.);
#310=ORIENTED_EDGE('',*,*,#576,.F.);
#311=ORIENTED_EDGE('',*,*,#577,.F.);
#312=ORIENTED_EDGE('',*,*,#578,.F.);
#313=ORIENTED_EDGE('',*,*,#579,.F.);
#314=ORIENTED_EDGE('',*,*,#580,.F.);
#315=ORIENTED_EDGE('',*,*,#581,.F.);
#316=ORIENTED_EDGE('',*,*,#582,.F.);
#317=ORIENTED_EDGE('',*,*,#583,.F.);
#318=ORIENTED_EDGE('',*,*,#570,.F.);
#319=ORIENTED_EDGE('',*,*,#552,.F.);
#320=ORIENTED_EDGE('',*,*,#569,.F.);
#321=ORIENTED_EDGE('',*,*,#542,.F.);
#322=ORIENTED_EDGE('',*,*,#584,.F.);
#323=ORIENTED_EDGE('',*,*,#584,.T.);
#324=ORIENTED_EDGE('',*,*,#575,.F.);
#325=ORIENTED_EDGE('',*,*,#585,.T.);
#326=ORIENTED_EDGE('',*,*,#586,.F.);
#327=ORIENTED_EDGE('',*,*,#587,.F.);
#328=ORIENTED_EDGE('',*,*,#588,.T.);
#329=ORIENTED_EDGE('',*,*,#589,.T.);
#330=ORIENTED_EDGE('',*,*,#590,.F.);
#331=ORIENTED_EDGE('',*,*,#585,.F.);
#332=ORIENTED_EDGE('',*,*,#591,.T.);
#333=ORIENTED_EDGE('',*,*,#592,.T.);
#334=ORIENTED_EDGE('',*,*,#593,.F.);
#335=ORIENTED_EDGE('',*,*,#589,.F.);
#336=ORIENTED_EDGE('',*,*,#594,.T.);
#337=ORIENTED_EDGE('',*,*,#595,.T.);
#338=ORIENTED_EDGE('',*,*,#596,.F.);
#339=ORIENTED_EDGE('',*,*,#592,.F.);
#340=ORIENTED_EDGE('',*,*,#597,.T.);
#341=ORIENTED_EDGE('',*,*,#598,.T.);
#342=ORIENTED_EDGE('',*,*,#599,.T.);
#343=ORIENTED_EDGE('',*,*,#600,.F.);
#344=ORIENTED_EDGE('',*,*,#595,.F.);
#345=ORIENTED_EDGE('',*,*,#601,.T.);
#346=ORIENTED_EDGE('',*,*,#602,.F.);
#347=ORIENTED_EDGE('',*,*,#599,.F.);
#348=ORIENTED_EDGE('',*,*,#603,.T.);
#349=ORIENTED_EDGE('',*,*,#604,.T.);
#350=ORIENTED_EDGE('',*,*,#605,.F.);
#351=ORIENTED_EDGE('',*,*,#601,.F.);
#352=ORIENTED_EDGE('',*,*,#606,.T.);
#353=ORIENTED_EDGE('',*,*,#607,.T.);
#354=ORIENTED_EDGE('',*,*,#608,.F.);
#355=ORIENTED_EDGE('',*,*,#604,.F.);
#356=ORIENTED_EDGE('',*,*,#609,.T.);
#357=ORIENTED_EDGE('',*,*,#610,.T.);
#358=ORIENTED_EDGE('',*,*,#611,.F.);
#359=ORIENTED_EDGE('',*,*,#607,.F.);
#360=ORIENTED_EDGE('',*,*,#612,.T.);
#361=ORIENTED_EDGE('',*,*,#613,.F.);
#362=ORIENTED_EDGE('',*,*,#614,.F.);
#363=ORIENTED_EDGE('',*,*,#615,.T.);
#364=ORIENTED_EDGE('',*,*,#616,.T.);
#365=ORIENTED_EDGE('',*,*,#617,.F.);
#366=ORIENTED_EDGE('',*,*,#618,.F.);
#367=ORIENTED_EDGE('',*,*,#619,.T.);
#368=ORIENTED_EDGE('',*,*,#614,.T.);
#369=ORIENTED_EDGE('',*,*,#620,.F.);
#370=ORIENTED_EDGE('',*,*,#621,.F.);
#371=ORIENTED_EDGE('',*,*,#622,.T.);
#372=ORIENTED_EDGE('',*,*,#618,.T.);
#373=ORIENTED_EDGE('',*,*,#623,.F.);
#374=ORIENTED_EDGE('',*,*,#624,.F.);
#375=ORIENTED_EDGE('',*,*,#625,.T.);
#376=ORIENTED_EDGE('',*,*,#621,.T.);
#377=ORIENTED_EDGE('',*,*,#626,.F.);
#378=ORIENTED_EDGE('',*,*,#627,.F.);
#379=ORIENTED_EDGE('',*,*,#628,.T.);
#380=ORIENTED_EDGE('',*,*,#624,.T.);
#381=ORIENTED_EDGE('',*,*,#629,.F.);
#382=ORIENTED_EDGE('',*,*,#630,.F.);
#383=ORIENTED_EDGE('',*,*,#631,.T.);
#384=ORIENTED_EDGE('',*,*,#627,.T.);
#385=ORIENTED_EDGE('',*,*,#632,.F.);
#386=ORIENTED_EDGE('',*,*,#633,.F.);
#387=ORIENTED_EDGE('',*,*,#634,.T.);
#388=ORIENTED_EDGE('',*,*,#630,.T.);
#389=ORIENTED_EDGE('',*,*,#635,.F.);
#390=ORIENTED_EDGE('',*,*,#636,.F.);
#391=ORIENTED_EDGE('',*,*,#637,.T.);
#392=ORIENTED_EDGE('',*,*,#633,.T.);
#393=ORIENTED_EDGE('',*,*,#638,.F.);
#394=ORIENTED_EDGE('',*,*,#639,.F.);
#395=ORIENTED_EDGE('',*,*,#640,.T.);
#396=ORIENTED_EDGE('',*,*,#636,.T.);
#397=ORIENTED_EDGE('',*,*,#641,.F.);
#398=ORIENTED_EDGE('',*,*,#642,.F.);
#399=ORIENTED_EDGE('',*,*,#643,.T.);
#400=ORIENTED_EDGE('',*,*,#639,.T.);
#401=ORIENTED_EDGE('',*,*,#587,.T.);
#402=ORIENTED_EDGE('',*,*,#644,.F.);
#403=ORIENTED_EDGE('',*,*,#645,.F.);
#404=ORIENTED_EDGE('',*,*,#646,.T.);
#405=ORIENTED_EDGE('',*,*,#647,.F.);
#406=ORIENTED_EDGE('',*,*,#616,.F.);
#407=ORIENTED_EDGE('',*,*,#648,.T.);
#408=ORIENTED_EDGE('',*,*,#649,.T.);
#409=ORIENTED_EDGE('',*,*,#650,.T.);
#410=ORIENTED_EDGE('',*,*,#651,.F.);
#411=ORIENTED_EDGE('',*,*,#610,.F.);
#412=ORIENTED_EDGE('',*,*,#652,.T.);
#413=ORIENTED_EDGE('',*,*,#653,.T.);
#414=ORIENTED_EDGE('',*,*,#578,.T.);
#415=ORIENTED_EDGE('',*,*,#654,.F.);
#416=ORIENTED_EDGE('',*,*,#650,.F.);
#417=ORIENTED_EDGE('',*,*,#655,.T.);
#418=ORIENTED_EDGE('',*,*,#576,.T.);
#419=ORIENTED_EDGE('',*,*,#656,.F.);
#420=ORIENTED_EDGE('',*,*,#649,.F.);
#421=ORIENTED_EDGE('',*,*,#657,.F.);
#422=ORIENTED_EDGE('',*,*,#572,.T.);
#423=ORIENTED_EDGE('',*,*,#658,.T.);
#424=ORIENTED_EDGE('',*,*,#642,.T.);
#425=ORIENTED_EDGE('',*,*,#659,.F.);
#426=ORIENTED_EDGE('',*,*,#574,.T.);
#427=ORIENTED_EDGE('',*,*,#660,.T.);
#428=ORIENTED_EDGE('',*,*,#645,.T.);
#429=ORIENTED_EDGE('',*,*,#660,.F.);
#430=ORIENTED_EDGE('',*,*,#573,.T.);
#431=ORIENTED_EDGE('',*,*,#657,.T.);
#432=ORIENTED_EDGE('',*,*,#641,.T.);
#433=ORIENTED_EDGE('',*,*,#638,.T.);
#434=ORIENTED_EDGE('',*,*,#635,.T.);
#435=ORIENTED_EDGE('',*,*,#632,.T.);
#436=ORIENTED_EDGE('',*,*,#629,.T.);
#437=ORIENTED_EDGE('',*,*,#626,.T.);
#438=ORIENTED_EDGE('',*,*,#623,.T.);
#439=ORIENTED_EDGE('',*,*,#620,.T.);
#440=ORIENTED_EDGE('',*,*,#617,.T.);
#441=ORIENTED_EDGE('',*,*,#613,.T.);
#442=ORIENTED_EDGE('',*,*,#647,.T.);
#443=ORIENTED_EDGE('',*,*,#656,.T.);
#444=ORIENTED_EDGE('',*,*,#579,.T.);
#445=ORIENTED_EDGE('',*,*,#653,.F.);
#446=ORIENTED_EDGE('',*,*,#652,.F.);
#447=ORIENTED_EDGE('',*,*,#612,.F.);
#448=ORIENTED_EDGE('',*,*,#609,.F.);
#449=ORIENTED_EDGE('',*,*,#606,.F.);
#450=ORIENTED_EDGE('',*,*,#603,.F.);
#451=ORIENTED_EDGE('',*,*,#598,.F.);
#452=ORIENTED_EDGE('',*,*,#597,.F.);
#453=ORIENTED_EDGE('',*,*,#594,.F.);
#454=ORIENTED_EDGE('',*,*,#591,.F.);
#455=ORIENTED_EDGE('',*,*,#588,.F.);
#456=ORIENTED_EDGE('',*,*,#646,.F.);
#457=ORIENTED_EDGE('',*,*,#654,.T.);
#458=ORIENTED_EDGE('',*,*,#577,.T.);
#459=ORIENTED_EDGE('',*,*,#655,.F.);
#460=ORIENTED_EDGE('',*,*,#648,.F.);
#461=ORIENTED_EDGE('',*,*,#615,.F.);
#462=ORIENTED_EDGE('',*,*,#619,.F.);
#463=ORIENTED_EDGE('',*,*,#622,.F.);
#464=ORIENTED_EDGE('',*,*,#625,.F.);
#465=ORIENTED_EDGE('',*,*,#628,.F.);
#466=ORIENTED_EDGE('',*,*,#631,.F.);
#467=ORIENTED_EDGE('',*,*,#634,.F.);
#468=ORIENTED_EDGE('',*,*,#637,.F.);
#469=ORIENTED_EDGE('',*,*,#640,.F.);
#470=ORIENTED_EDGE('',*,*,#643,.F.);
#471=ORIENTED_EDGE('',*,*,#658,.F.);
#472=ORIENTED_EDGE('',*,*,#571,.T.);
#473=ORIENTED_EDGE('',*,*,#659,.T.);
#474=ORIENTED_EDGE('',*,*,#644,.T.);
#475=ORIENTED_EDGE('',*,*,#586,.T.);
#476=ORIENTED_EDGE('',*,*,#590,.T.);
#477=ORIENTED_EDGE('',*,*,#593,.T.);
#478=ORIENTED_EDGE('',*,*,#596,.T.);
#479=ORIENTED_EDGE('',*,*,#600,.T.);
#480=ORIENTED_EDGE('',*,*,#602,.T.);
#481=ORIENTED_EDGE('',*,*,#605,.T.);
#482=ORIENTED_EDGE('',*,*,#608,.T.);
#483=ORIENTED_EDGE('',*,*,#611,.T.);
#484=ORIENTED_EDGE('',*,*,#651,.T.);
#485=ORIENTED_EDGE('',*,*,#661,.F.);
#486=ORIENTED_EDGE('',*,*,#662,.F.);
#487=ORIENTED_EDGE('',*,*,#663,.T.);
#488=ORIENTED_EDGE('',*,*,#664,.T.);
#489=ORIENTED_EDGE('',*,*,#665,.F.);
#490=ORIENTED_EDGE('',*,*,#666,.F.);
#491=ORIENTED_EDGE('',*,*,#667,.T.);
#492=ORIENTED_EDGE('',*,*,#662,.T.);
#493=ORIENTED_EDGE('',*,*,#668,.T.);
#494=ORIENTED_EDGE('',*,*,#669,.T.);
#495=ORIENTED_EDGE('',*,*,#666,.T.);
#496=ORIENTED_EDGE('',*,*,#670,.T.);
#497=ORIENTED_EDGE('',*,*,#671,.T.);
#498=ORIENTED_EDGE('',*,*,#672,.F.);
#499=ORIENTED_EDGE('',*,*,#668,.F.);
#500=ORIENTED_EDGE('',*,*,#673,.T.);
#501=ORIENTED_EDGE('',*,*,#674,.T.);
#502=ORIENTED_EDGE('',*,*,#675,.F.);
#503=ORIENTED_EDGE('',*,*,#671,.F.);
#504=ORIENTED_EDGE('',*,*,#676,.T.);
#505=ORIENTED_EDGE('',*,*,#677,.F.);
#506=ORIENTED_EDGE('',*,*,#664,.F.);
#507=ORIENTED_EDGE('',*,*,#678,.T.);
#508=ORIENTED_EDGE('',*,*,#679,.T.);
#509=ORIENTED_EDGE('',*,*,#680,.T.);
#510=ORIENTED_EDGE('',*,*,#681,.F.);
#511=ORIENTED_EDGE('',*,*,#674,.F.);
#512=ORIENTED_EDGE('',*,*,#682,.T.);
#513=ORIENTED_EDGE('',*,*,#683,.T.);
#514=ORIENTED_EDGE('',*,*,#580,.T.);
#515=ORIENTED_EDGE('',*,*,#684,.F.);
#516=ORIENTED_EDGE('',*,*,#680,.F.);
#517=ORIENTED_EDGE('',*,*,#685,.T.);
#518=ORIENTED_EDGE('',*,*,#582,.T.);
#519=ORIENTED_EDGE('',*,*,#686,.F.);
#520=ORIENTED_EDGE('',*,*,#679,.F.);
#521=ORIENTED_EDGE('',*,*,#686,.T.);
#522=ORIENTED_EDGE('',*,*,#581,.T.);
#523=ORIENTED_EDGE('',*,*,#683,.F.);
#524=ORIENTED_EDGE('',*,*,#682,.F.);
#525=ORIENTED_EDGE('',*,*,#676,.F.);
#526=ORIENTED_EDGE('',*,*,#673,.F.);
#527=ORIENTED_EDGE('',*,*,#670,.F.);
#528=ORIENTED_EDGE('',*,*,#665,.T.);
#529=ORIENTED_EDGE('',*,*,#661,.T.);
#530=ORIENTED_EDGE('',*,*,#677,.T.);
#531=ORIENTED_EDGE('',*,*,#684,.T.);
#532=ORIENTED_EDGE('',*,*,#583,.T.);
#533=ORIENTED_EDGE('',*,*,#685,.F.);
#534=ORIENTED_EDGE('',*,*,#678,.F.);
#535=ORIENTED_EDGE('',*,*,#663,.F.);
#536=ORIENTED_EDGE('',*,*,#667,.F.);
#537=ORIENTED_EDGE('',*,*,#669,.F.);
#538=ORIENTED_EDGE('',*,*,#672,.T.);
#539=ORIENTED_EDGE('',*,*,#675,.T.);
#540=ORIENTED_EDGE('',*,*,#681,.T.);
#541=EDGE_CURVE('',#687,#688,#785,.T.);
#542=EDGE_CURVE('',#687,#689,#41,.T.);
#543=EDGE_CURVE('',#689,#690,#786,.T.);
#544=EDGE_CURVE('',#690,#691,#42,.T.);
#545=EDGE_CURVE('',#691,#692,#787,.T.);
#546=EDGE_CURVE('',#692,#693,#43,.T.);
#547=EDGE_CURVE('',#693,#694,#44,.F.);
#548=EDGE_CURVE('',#695,#694,#45,.T.);
#549=EDGE_CURVE('',#696,#695,#788,.T.);
#550=EDGE_CURVE('',#688,#696,#46,.T.);
#551=EDGE_CURVE('',#697,#698,#789,.T.);
#552=EDGE_CURVE('',#697,#699,#47,.T.);
#553=EDGE_CURVE('',#699,#700,#790,.T.);
#554=EDGE_CURVE('',#700,#701,#48,.T.);
#555=EDGE_CURVE('',#701,#702,#791,.T.);
#556=EDGE_CURVE('',#702,#703,#49,.T.);
#557=EDGE_CURVE('',#703,#704,#50,.F.);
#558=EDGE_CURVE('',#705,#704,#51,.T.);
#559=EDGE_CURVE('',#706,#705,#792,.T.);
#560=EDGE_CURVE('',#698,#706,#52,.T.);
#561=EDGE_CURVE('',#704,#693,#53,.F.);
#562=EDGE_CURVE('',#705,#692,#54,.F.);
#563=EDGE_CURVE('',#695,#702,#55,.F.);
#564=EDGE_CURVE('',#694,#703,#56,.F.);
#565=EDGE_CURVE('',#706,#691,#57,.F.);
#566=EDGE_CURVE('',#696,#701,#58,.F.);
#567=EDGE_CURVE('',#698,#690,#59,.F.);
#568=EDGE_CURVE('',#688,#700,#60,.F.);
#569=EDGE_CURVE('',#689,#697,#61,.T.);
#570=EDGE_CURVE('',#699,#687,#62,.F.);
#571=EDGE_CURVE('',#707,#708,#63,.T.);
#572=EDGE_CURVE('',#709,#707,#64,.T.);
#573=EDGE_CURVE('',#710,#709,#65,.T.);
#574=EDGE_CURVE('',#708,#710,#66,.T.);
#575=EDGE_CURVE('',#711,#711,#793,.T.);
#576=EDGE_CURVE('',#712,#713,#67,.T.);
#577=EDGE_CURVE('',#714,#712,#68,.T.);
#578=EDGE_CURVE('',#715,#714,#69,.T.);
#579=EDGE_CURVE('',#713,#715,#70,.T.);
#580=EDGE_CURVE('',#716,#717,#71,.F.);
#581=EDGE_CURVE('',#718,#716,#72,.T.);
#582=EDGE_CURVE('',#719,#718,#73,.T.);
#583=EDGE_CURVE('',#717,#719,#74,.T.);
#584=EDGE_CURVE('',#720,#720,#794,.T.);
#585=EDGE_CURVE('',#721,#722,#75,.F.);
#586=EDGE_CURVE('',#723,#722,#76,.T.);
#587=EDGE_CURVE('',#724,#723,#77,.F.);
#588=EDGE_CURVE('',#724,#721,#78,.T.);
#589=EDGE_CURVE('',#725,#726,#79,.F.);
#590=EDGE_CURVE('',#722,#726,#795,.T.);
#591=EDGE_CURVE('',#721,#725,#796,.T.);
#592=EDGE_CURVE('',#727,#728,#80,.F.);
#593=EDGE_CURVE('',#726,#728,#81,.T.);
#594=EDGE_CURVE('',#725,#727,#82,.T.);
#595=EDGE_CURVE('',#729,#730,#83,.F.);
#596=EDGE_CURVE('',#728,#730,#797,.T.);
#597=EDGE_CURVE('',#727,#729,#798,.T.);
#598=EDGE_CURVE('',#729,#731,#84,.T.);
#599=EDGE_CURVE('',#731,#732,#85,.F.);
#600=EDGE_CURVE('',#730,#732,#86,.T.);
#601=EDGE_CURVE('',#733,#734,#87,.F.);
#602=EDGE_CURVE('',#732,#734,#799,.T.);
#603=EDGE_CURVE('',#731,#733,#800,.T.);
#604=EDGE_CURVE('',#735,#736,#88,.F.);
#605=EDGE_CURVE('',#734,#736,#89,.T.);
#606=EDGE_CURVE('',#733,#735,#90,.T.);
#607=EDGE_CURVE('',#737,#738,#91,.F.);
#608=EDGE_CURVE('',#736,#738,#801,.T.);
#609=EDGE_CURVE('',#735,#737,#802,.T.);
#610=EDGE_CURVE('',#739,#740,#92,.F.);
#611=EDGE_CURVE('',#738,#740,#93,.T.);
#612=EDGE_CURVE('',#737,#739,#94,.T.);
#613=EDGE_CURVE('',#741,#742,#95,.T.);
#614=EDGE_CURVE('',#743,#741,#96,.F.);
#615=EDGE_CURVE('',#743,#744,#97,.T.);
#616=EDGE_CURVE('',#744,#742,#98,.F.);
#617=EDGE_CURVE('',#745,#741,#803,.T.);
#618=EDGE_CURVE('',#746,#745,#99,.F.);
#619=EDGE_CURVE('',#746,#743,#804,.T.);
#620=EDGE_CURVE('',#747,#745,#100,.T.);
#621=EDGE_CURVE('',#748,#747,#101,.F.);
#622=EDGE_CURVE('',#748,#746,#102,.T.);
#623=EDGE_CURVE('',#749,#747,#805,.T.);
#624=EDGE_CURVE('',#750,#749,#103,.F.);
#625=EDGE_CURVE('',#750,#748,#806,.T.);
#626=EDGE_CURVE('',#751,#749,#104,.T.);
#627=EDGE_CURVE('',#752,#751,#105,.F.);
#628=EDGE_CURVE('',#752,#750,#106,.T.);
#629=EDGE_CURVE('',#753,#751,#807,.T.);
#630=EDGE_CURVE('',#754,#753,#107,.F.);
#631=EDGE_CURVE('',#754,#752,#808,.T.);
#632=EDGE_CURVE('',#755,#753,#108,.T.);
#633=EDGE_CURVE('',#756,#755,#109,.F.);
#634=EDGE_CURVE('',#756,#754,#110,.T.);
#635=EDGE_CURVE('',#757,#755,#809,.T.);
#636=EDGE_CURVE('',#758,#757,#111,.F.);
#637=EDGE_CURVE('',#758,#756,#810,.T.);
#638=EDGE_CURVE('',#759,#757,#112,.T.);
#639=EDGE_CURVE('',#760,#759,#113,.F.);
#640=EDGE_CURVE('',#760,#758,#114,.T.);
#641=EDGE_CURVE('',#761,#759,#811,.T.);
#642=EDGE_CURVE('',#762,#761,#115,.F.);
#643=EDGE_CURVE('',#762,#760,#812,.T.);
#644=EDGE_CURVE('',#763,#723,#813,.T.);
#645=EDGE_CURVE('',#764,#763,#116,.F.);
#646=EDGE_CURVE('',#764,#724,#814,.T.);
#647=EDGE_CURVE('',#742,#765,#815,.T.);
#648=EDGE_CURVE('',#744,#766,#816,.T.);
#649=EDGE_CURVE('',#766,#765,#117,.F.);
#650=EDGE_CURVE('',#767,#768,#118,.F.);
#651=EDGE_CURVE('',#740,#768,#817,.T.);
#652=EDGE_CURVE('',#739,#767,#818,.T.);
#653=EDGE_CURVE('',#767,#715,#119,.T.);
#654=EDGE_CURVE('',#768,#714,#120,.T.);
#655=EDGE_CURVE('',#766,#712,#121,.T.);
#656=EDGE_CURVE('',#765,#713,#122,.T.);
#657=EDGE_CURVE('',#709,#761,#123,.T.);
#658=EDGE_CURVE('',#707,#762,#124,.T.);
#659=EDGE_CURVE('',#708,#763,#125,.T.);
#660=EDGE_CURVE('',#710,#764,#126,.T.);
#661=EDGE_CURVE('',#769,#770,#819,.T.);
#662=EDGE_CURVE('',#771,#769,#127,.F.);
#663=EDGE_CURVE('',#771,#772,#820,.T.);
#664=EDGE_CURVE('',#772,#770,#128,.F.);
#665=EDGE_CURVE('',#773,#769,#129,.T.);
#666=EDGE_CURVE('',#774,#773,#130,.F.);
#667=EDGE_CURVE('',#774,#771,#131,.T.);
#668=EDGE_CURVE('',#775,#776,#132,.F.);
#669=EDGE_CURVE('',#776,#774,#133,.F.);
#670=EDGE_CURVE('',#773,#775,#134,.F.);
#671=EDGE_CURVE('',#777,#778,#135,.F.);
#672=EDGE_CURVE('',#776,#778,#136,.T.);
#673=EDGE_CURVE('',#775,#777,#137,.T.);
#674=EDGE_CURVE('',#779,#780,#138,.F.);
#675=EDGE_CURVE('',#778,#780,#821,.T.);
#676=EDGE_CURVE('',#777,#779,#822,.T.);
#677=EDGE_CURVE('',#770,#781,#139,.T.);
#678=EDGE_CURVE('',#772,#782,#140,.T.);
#679=EDGE_CURVE('',#782,#781,#141,.F.);
#680=EDGE_CURVE('',#783,#784,#142,.F.);
#681=EDGE_CURVE('',#780,#784,#143,.T.);
#682=EDGE_CURVE('',#779,#783,#144,.T.);
#683=EDGE_CURVE('',#783,#716,#823,.T.);
#684=EDGE_CURVE('',#784,#717,#824,.T.);
#685=EDGE_CURVE('',#782,#719,#825,.T.);
#686=EDGE_CURVE('',#781,#718,#826,.T.);
#687=VERTEX_POINT('',#1800);
#688=VERTEX_POINT('',#1801);
#689=VERTEX_POINT('',#1803);
#690=VERTEX_POINT('',#1805);
#691=VERTEX_POINT('',#1807);
#692=VERTEX_POINT('',#1809);
#693=VERTEX_POINT('',#1811);
#694=VERTEX_POINT('',#1813);
#695=VERTEX_POINT('',#1815);
#696=VERTEX_POINT('',#1817);
#697=VERTEX_POINT('',#1821);
#698=VERTEX_POINT('',#1822);
#699=VERTEX_POINT('',#1824);
#700=VERTEX_POINT('',#1826);
#701=VERTEX_POINT('',#1828);
#702=VERTEX_POINT('',#1830);
#703=VERTEX_POINT('',#1832);
#704=VERTEX_POINT('',#1834);
#705=VERTEX_POINT('',#1836);
#706=VERTEX_POINT('',#1838);
#707=VERTEX_POINT('',#1861);
#708=VERTEX_POINT('',#1862);
#709=VERTEX_POINT('',#1864);
#710=VERTEX_POINT('',#1866);
#711=VERTEX_POINT('',#1869);
#712=VERTEX_POINT('',#1871);
#713=VERTEX_POINT('',#1872);
#714=VERTEX_POINT('',#1874);
#715=VERTEX_POINT('',#1876);
#716=VERTEX_POINT('',#1880);
#717=VERTEX_POINT('',#1881);
#718=VERTEX_POINT('',#1883);
#719=VERTEX_POINT('',#1885);
#720=VERTEX_POINT('',#1888);
#721=VERTEX_POINT('',#1892);
#722=VERTEX_POINT('',#1893);
#723=VERTEX_POINT('',#1895);
#724=VERTEX_POINT('',#1897);
#725=VERTEX_POINT('',#1901);
#726=VERTEX_POINT('',#1902);
#727=VERTEX_POINT('',#1907);
#728=VERTEX_POINT('',#1908);
#729=VERTEX_POINT('',#1913);
#730=VERTEX_POINT('',#1914);
#731=VERTEX_POINT('',#1919);
#732=VERTEX_POINT('',#1921);
#733=VERTEX_POINT('',#1925);
#734=VERTEX_POINT('',#1926);
#735=VERTEX_POINT('',#1931);
#736=VERTEX_POINT('',#1932);
#737=VERTEX_POINT('',#1937);
#738=VERTEX_POINT('',#1938);
#739=VERTEX_POINT('',#1943);
#740=VERTEX_POINT('',#1944);
#741=VERTEX_POINT('',#1949);
#742=VERTEX_POINT('',#1950);
#743=VERTEX_POINT('',#1952);
#744=VERTEX_POINT('',#1954);
#745=VERTEX_POINT('',#1958);
#746=VERTEX_POINT('',#1960);
#747=VERTEX_POINT('',#1964);
#748=VERTEX_POINT('',#1966);
#749=VERTEX_POINT('',#1970);
#750=VERTEX_POINT('',#1972);
#751=VERTEX_POINT('',#1976);
#752=VERTEX_POINT('',#1978);
#753=VERTEX_POINT('',#1982);
#754=VERTEX_POINT('',#1984);
#755=VERTEX_POINT('',#1988);
#756=VERTEX_POINT('',#1990);
#757=VERTEX_POINT('',#1994);
#758=VERTEX_POINT('',#1996);
#759=VERTEX_POINT('',#2000);
#760=VERTEX_POINT('',#2002);
#761=VERTEX_POINT('',#2006);
#762=VERTEX_POINT('',#2008);
#763=VERTEX_POINT('',#2012);
#764=VERTEX_POINT('',#2014);
#765=VERTEX_POINT('',#2018);
#766=VERTEX_POINT('',#2020);
#767=VERTEX_POINT('',#2024);
#768=VERTEX_POINT('',#2025);
#769=VERTEX_POINT('',#2044);
#770=VERTEX_POINT('',#2045);
#771=VERTEX_POINT('',#2047);
#772=VERTEX_POINT('',#2049);
#773=VERTEX_POINT('',#2053);
#774=VERTEX_POINT('',#2055);
#775=VERTEX_POINT('',#2059);
#776=VERTEX_POINT('',#2060);
#777=VERTEX_POINT('',#2065);
#778=VERTEX_POINT('',#2066);
#779=VERTEX_POINT('',#2071);
#780=VERTEX_POINT('',#2072);
#781=VERTEX_POINT('',#2077);
#782=VERTEX_POINT('',#2079);
#783=VERTEX_POINT('',#2083);
#784=VERTEX_POINT('',#2084);
#785=CIRCLE('',#1407,2.11630866910773);
#786=CIRCLE('',#1408,1.61630866910773);
#787=CIRCLE('',#1409,2.53780272847981);
#788=CIRCLE('',#1410,2.03780272847981);
#789=CIRCLE('',#1412,1.61630866910773);
#790=CIRCLE('',#1413,2.11630866910773);
#791=CIRCLE('',#1414,2.03780272847981);
#792=CIRCLE('',#1415,2.53780272847981);
#793=CIRCLE('',#1426,1.6);
#794=CIRCLE('',#1428,1.6);
#795=CIRCLE('',#1432,0.791949584726284);
#796=CIRCLE('',#1433,0.791949584726284);
#797=CIRCLE('',#1436,1.12076972182119);
#798=CIRCLE('',#1437,1.12076972182119);
#799=CIRCLE('',#1440,1.12076972182119);
#800=CIRCLE('',#1441,1.12076972182119);
#801=CIRCLE('',#1444,0.791949584726284);
#802=CIRCLE('',#1445,0.791949584726284);
#803=CIRCLE('',#1449,0.291949584726284);
#804=CIRCLE('',#1450,0.291949584726284);
#805=CIRCLE('',#1453,0.620769721821193);
#806=CIRCLE('',#1454,0.620769721821193);
#807=CIRCLE('',#1457,0.620769721821193);
#808=CIRCLE('',#1458,0.620769721821193);
#809=CIRCLE('',#1461,0.291949584726283);
#810=CIRCLE('',#1462,0.291949584726283);
#811=CIRCLE('',#1465,0.681903925877669);
#812=CIRCLE('',#1466,0.681903925877669);
#813=CIRCLE('',#1468,0.181903925877669);
#814=CIRCLE('',#1469,0.181903925877669);
#815=CIRCLE('',#1471,0.681903925877669);
#816=CIRCLE('',#1472,0.681903925877668);
#817=CIRCLE('',#1474,0.181903925877668);
#818=CIRCLE('',#1475,0.181903925877668);
#819=CIRCLE('',#1483,2.03780272847981);
#820=CIRCLE('',#1484,2.03780272847981);
#821=CIRCLE('',#1489,2.53780272847981);
#822=CIRCLE('',#1490,2.53780272847981);
#823=CIRCLE('',#1494,1.61630866910773);
#824=CIRCLE('',#1495,1.61630866910773);
#825=CIRCLE('',#1497,2.11630866910773);
#826=CIRCLE('',#1498,2.11630866910773);
#827=EDGE_LOOP('',(#249,#250,#251,#252,#253,#254,#255,#256,#257,#258));
#828=EDGE_LOOP('',(#259,#260,#261,#262,#263,#264,#265,#266,#267,#268));
#829=EDGE_LOOP('',(#269,#270,#271,#272));
#830=EDGE_LOOP('',(#273,#274,#275,#276));
#831=EDGE_LOOP('',(#277,#278,#279,#280));
#832=EDGE_LOOP('',(#281,#282,#283,#284));
#833=EDGE_LOOP('',(#285,#286,#287,#288));
#834=EDGE_LOOP('',(#289,#290,#291,#292));
#835=EDGE_LOOP('',(#293,#294,#295,#296));
#836=EDGE_LOOP('',(#297,#298,#299,#300));
#837=EDGE_LOOP('',(#301,#302,#303,#304));
#838=EDGE_LOOP('',(#305,#306,#307,#308));
#839=EDGE_LOOP('',(#309));
#840=EDGE_LOOP('',(#310,#311,#312,#313));
#841=EDGE_LOOP('',(#314,#315,#316,#317));
#842=EDGE_LOOP('',(#318,#319,#320,#321));
#843=EDGE_LOOP('',(#322));
#844=EDGE_LOOP('',(#323));
#845=EDGE_LOOP('',(#324));
#846=EDGE_LOOP('',(#325,#326,#327,#328));
#847=EDGE_LOOP('',(#329,#330,#331,#332));
#848=EDGE_LOOP('',(#333,#334,#335,#336));
#849=EDGE_LOOP('',(#337,#338,#339,#340));
#850=EDGE_LOOP('',(#341,#342,#343,#344));
#851=EDGE_LOOP('',(#345,#346,#347,#348));
#852=EDGE_LOOP('',(#349,#350,#351,#352));
#853=EDGE_LOOP('',(#353,#354,#355,#356));
#854=EDGE_LOOP('',(#357,#358,#359,#360));
#855=EDGE_LOOP('',(#361,#362,#363,#364));
#856=EDGE_LOOP('',(#365,#366,#367,#368));
#857=EDGE_LOOP('',(#369,#370,#371,#372));
#858=EDGE_LOOP('',(#373,#374,#375,#376));
#859=EDGE_LOOP('',(#377,#378,#379,#380));
#860=EDGE_LOOP('',(#381,#382,#383,#384));
#861=EDGE_LOOP('',(#385,#386,#387,#388));
#862=EDGE_LOOP('',(#389,#390,#391,#392));
#863=EDGE_LOOP('',(#393,#394,#395,#396));
#864=EDGE_LOOP('',(#397,#398,#399,#400));
#865=EDGE_LOOP('',(#401,#402,#403,#404));
#866=EDGE_LOOP('',(#405,#406,#407,#408));
#867=EDGE_LOOP('',(#409,#410,#411,#412));
#868=EDGE_LOOP('',(#413,#414,#415,#416));
#869=EDGE_LOOP('',(#417,#418,#419,#420));
#870=EDGE_LOOP('',(#421,#422,#423,#424));
#871=EDGE_LOOP('',(#425,#426,#427,#428));
#872=EDGE_LOOP('',(#429,#430,#431,#432,#433,#434,#435,#436,#437,#438,#439,
#440,#441,#442,#443,#444,#445,#446,#447,#448,#449,#450,#451,#452,#453,#454,
#455,#456));
#873=EDGE_LOOP('',(#457,#458,#459,#460,#461,#462,#463,#464,#465,#466,#467,
#468,#469,#470,#471,#472,#473,#474,#475,#476,#477,#478,#479,#480,#481,#482,
#483,#484));
#874=EDGE_LOOP('',(#485,#486,#487,#488));
#875=EDGE_LOOP('',(#489,#490,#491,#492));
#876=EDGE_LOOP('',(#493,#494,#495,#496));
#877=EDGE_LOOP('',(#497,#498,#499,#500));
#878=EDGE_LOOP('',(#501,#502,#503,#504));
#879=EDGE_LOOP('',(#505,#506,#507,#508));
#880=EDGE_LOOP('',(#509,#510,#511,#512));
#881=EDGE_LOOP('',(#513,#514,#515,#516));
#882=EDGE_LOOP('',(#517,#518,#519,#520));
#883=EDGE_LOOP('',(#521,#522,#523,#524,#525,#526,#527,#528,#529,#530));
#884=EDGE_LOOP('',(#531,#532,#533,#534,#535,#536,#537,#538,#539,#540));
#885=FACE_BOUND('',#827,.T.);
#886=FACE_BOUND('',#828,.T.);
#887=FACE_BOUND('',#829,.T.);
#888=FACE_BOUND('',#830,.T.);
#889=FACE_BOUND('',#831,.T.);
#890=FACE_BOUND('',#832,.T.);
#891=FACE_BOUND('',#833,.T.);
#892=FACE_BOUND('',#834,.T.);
#893=FACE_BOUND('',#835,.T.);
#894=FACE_BOUND('',#836,.T.);
#895=FACE_BOUND('',#837,.T.);
#896=FACE_BOUND('',#838,.T.);
#897=FACE_BOUND('',#839,.T.);
#898=FACE_BOUND('',#840,.T.);
#899=FACE_BOUND('',#841,.T.);
#900=FACE_BOUND('',#842,.T.);
#901=FACE_BOUND('',#843,.T.);
#902=FACE_BOUND('',#844,.T.);
#903=FACE_BOUND('',#845,.T.);
#904=FACE_BOUND('',#846,.T.);
#905=FACE_BOUND('',#847,.T.);
#906=FACE_BOUND('',#848,.T.);
#907=FACE_BOUND('',#849,.T.);
#908=FACE_BOUND('',#850,.T.);
#909=FACE_BOUND('',#851,.T.);
#910=FACE_BOUND('',#852,.T.);
#911=FACE_BOUND('',#853,.T.);
#912=FACE_BOUND('',#854,.T.);
#913=FACE_BOUND('',#855,.T.);
#914=FACE_BOUND('',#856,.T.);
#915=FACE_BOUND('',#857,.T.);
#916=FACE_BOUND('',#858,.T.);
#917=FACE_BOUND('',#859,.T.);
#918=FACE_BOUND('',#860,.T.);
#919=FACE_BOUND('',#861,.T.);
#920=FACE_BOUND('',#862,.T.);
#921=FACE_BOUND('',#863,.T.);
#922=FACE_BOUND('',#864,.T.);
#923=FACE_BOUND('',#865,.T.);
#924=FACE_BOUND('',#866,.T.);
#925=FACE_BOUND('',#867,.T.);
#926=FACE_BOUND('',#868,.T.);
#927=FACE_BOUND('',#869,.T.);
#928=FACE_BOUND('',#870,.T.);
#929=FACE_BOUND('',#871,.T.);
#930=FACE_BOUND('',#872,.T.);
#931=FACE_BOUND('',#873,.T.);
#932=FACE_BOUND('',#874,.T.);
#933=FACE_BOUND('',#875,.T.);
#934=FACE_BOUND('',#876,.T.);
#935=FACE_BOUND('',#877,.T.);
#936=FACE_BOUND('',#878,.T.);
#937=FACE_BOUND('',#879,.T.);
#938=FACE_BOUND('',#880,.T.);
#939=FACE_BOUND('',#881,.T.);
#940=FACE_BOUND('',#882,.T.);
#941=FACE_BOUND('',#883,.T.);
#942=FACE_BOUND('',#884,.T.);
#943=PLANE('',#1406);
#944=PLANE('',#1411);
#945=PLANE('',#1416);
#946=PLANE('',#1417);
#947=PLANE('',#1420);
#948=PLANE('',#1421);
#949=PLANE('',#1424);
#950=PLANE('',#1425);
#951=PLANE('',#1427);
#952=PLANE('',#1430);
#953=PLANE('',#1434);
#954=PLANE('',#1438);
#955=PLANE('',#1442);
#956=PLANE('',#1446);
#957=PLANE('',#1447);
#958=PLANE('',#1451);
#959=PLANE('',#1455);
#960=PLANE('',#1459);
#961=PLANE('',#1463);
#962=PLANE('',#1476);
#963=PLANE('',#1477);
#964=PLANE('',#1478);
#965=PLANE('',#1479);
#966=PLANE('',#1480);
#967=PLANE('',#1481);
#968=PLANE('',#1485);
#969=PLANE('',#1486);
#970=PLANE('',#1487);
#971=PLANE('',#1491);
#972=PLANE('',#1492);
#973=PLANE('',#1499);
#974=PLANE('',#1500);
#975=STYLED_ITEM('',(#1028),#1348);
#976=STYLED_ITEM('',(#1029),#1349);
#977=STYLED_ITEM('',(#1030),#1350);
#978=STYLED_ITEM('',(#1031),#1351);
#979=STYLED_ITEM('',(#1032),#1352);
#980=STYLED_ITEM('',(#1033),#1353);
#981=STYLED_ITEM('',(#1034),#1354);
#982=STYLED_ITEM('',(#1035),#1355);
#983=STYLED_ITEM('',(#1036),#1356);
#984=STYLED_ITEM('',(#1037),#1357);
#985=STYLED_ITEM('',(#1038),#1358);
#986=STYLED_ITEM('',(#1039),#1359);
#987=STYLED_ITEM('',(#1040),#1360);
#988=STYLED_ITEM('',(#1041),#1361);
#989=STYLED_ITEM('',(#1042),#1362);
#990=STYLED_ITEM('',(#1043),#1363);
#991=STYLED_ITEM('',(#1044),#1364);
#992=STYLED_ITEM('',(#1045),#1365);
#993=STYLED_ITEM('',(#1046),#1366);
#994=STYLED_ITEM('',(#1047),#1367);
#995=STYLED_ITEM('',(#1048),#1368);
#996=STYLED_ITEM('',(#1049),#1369);
#997=STYLED_ITEM('',(#1050),#1370);
#998=STYLED_ITEM('',(#1051),#1371);
#999=STYLED_ITEM('',(#1052),#1372);
#1000=STYLED_ITEM('',(#1053),#1373);
#1001=STYLED_ITEM('',(#1054),#1374);
#1002=STYLED_ITEM('',(#1055),#1375);
#1003=STYLED_ITEM('',(#1056),#1376);
#1004=STYLED_ITEM('',(#1057),#1377);
#1005=STYLED_ITEM('',(#1058),#1378);
#1006=STYLED_ITEM('',(#1059),#1379);
#1007=STYLED_ITEM('',(#1060),#1380);
#1008=STYLED_ITEM('',(#1061),#1381);
#1009=STYLED_ITEM('',(#1062),#1382);
#1010=STYLED_ITEM('',(#1063),#1383);
#1011=STYLED_ITEM('',(#1064),#1384);
#1012=STYLED_ITEM('',(#1065),#1385);
#1013=STYLED_ITEM('',(#1066),#1386);
#1014=STYLED_ITEM('',(#1067),#1387);
#1015=STYLED_ITEM('',(#1068),#1388);
#1016=STYLED_ITEM('',(#1069),#1389);
#1017=STYLED_ITEM('',(#1070),#1390);
#1018=STYLED_ITEM('',(#1071),#1391);
#1019=STYLED_ITEM('',(#1072),#1392);
#1020=STYLED_ITEM('',(#1073),#1393);
#1021=STYLED_ITEM('',(#1074),#1394);
#1022=STYLED_ITEM('',(#1075),#1395);
#1023=STYLED_ITEM('',(#1076),#1396);
#1024=STYLED_ITEM('',(#1077),#1397);
#1025=STYLED_ITEM('',(#1078),#1398);
#1026=STYLED_ITEM('',(#1079),#1399);
#1027=STYLED_ITEM('',(#1080),#1400);
#1028=PRESENTATION_STYLE_ASSIGNMENT((#1081));
#1029=PRESENTATION_STYLE_ASSIGNMENT((#1082));
#1030=PRESENTATION_STYLE_ASSIGNMENT((#1083));
#1031=PRESENTATION_STYLE_ASSIGNMENT((#1084));
#1032=PRESENTATION_STYLE_ASSIGNMENT((#1085));
#1033=PRESENTATION_STYLE_ASSIGNMENT((#1086));
#1034=PRESENTATION_STYLE_ASSIGNMENT((#1087));
#1035=PRESENTATION_STYLE_ASSIGNMENT((#1088));
#1036=PRESENTATION_STYLE_ASSIGNMENT((#1089));
#1037=PRESENTATION_STYLE_ASSIGNMENT((#1090));
#1038=PRESENTATION_STYLE_ASSIGNMENT((#1091));
#1039=PRESENTATION_STYLE_ASSIGNMENT((#1092));
#1040=PRESENTATION_STYLE_ASSIGNMENT((#1093));
#1041=PRESENTATION_STYLE_ASSIGNMENT((#1094));
#1042=PRESENTATION_STYLE_ASSIGNMENT((#1095));
#1043=PRESENTATION_STYLE_ASSIGNMENT((#1096));
#1044=PRESENTATION_STYLE_ASSIGNMENT((#1097));
#1045=PRESENTATION_STYLE_ASSIGNMENT((#1098));
#1046=PRESENTATION_STYLE_ASSIGNMENT((#1099));
#1047=PRESENTATION_STYLE_ASSIGNMENT((#1100));
#1048=PRESENTATION_STYLE_ASSIGNMENT((#1101));
#1049=PRESENTATION_STYLE_ASSIGNMENT((#1102));
#1050=PRESENTATION_STYLE_ASSIGNMENT((#1103));
#1051=PRESENTATION_STYLE_ASSIGNMENT((#1104));
#1052=PRESENTATION_STYLE_ASSIGNMENT((#1105));
#1053=PRESENTATION_STYLE_ASSIGNMENT((#1106));
#1054=PRESENTATION_STYLE_ASSIGNMENT((#1107));
#1055=PRESENTATION_STYLE_ASSIGNMENT((#1108));
#1056=PRESENTATION_STYLE_ASSIGNMENT((#1109));
#1057=PRESENTATION_STYLE_ASSIGNMENT((#1110));
#1058=PRESENTATION_STYLE_ASSIGNMENT((#1111));
#1059=PRESENTATION_STYLE_ASSIGNMENT((#1112));
#1060=PRESENTATION_STYLE_ASSIGNMENT((#1113));
#1061=PRESENTATION_STYLE_ASSIGNMENT((#1114));
#1062=PRESENTATION_STYLE_ASSIGNMENT((#1115));
#1063=PRESENTATION_STYLE_ASSIGNMENT((#1116));
#1064=PRESENTATION_STYLE_ASSIGNMENT((#1117));
#1065=PRESENTATION_STYLE_ASSIGNMENT((#1118));
#1066=PRESENTATION_STYLE_ASSIGNMENT((#1119));
#1067=PRESENTATION_STYLE_ASSIGNMENT((#1120));
#1068=PRESENTATION_STYLE_ASSIGNMENT((#1121));
#1069=PRESENTATION_STYLE_ASSIGNMENT((#1122));
#1070=PRESENTATION_STYLE_ASSIGNMENT((#1123));
#1071=PRESENTATION_STYLE_ASSIGNMENT((#1124));
#1072=PRESENTATION_STYLE_ASSIGNMENT((#1125));
#1073=PRESENTATION_STYLE_ASSIGNMENT((#1126));
#1074=PRESENTATION_STYLE_ASSIGNMENT((#1127));
#1075=PRESENTATION_STYLE_ASSIGNMENT((#1128));
#1076=PRESENTATION_STYLE_ASSIGNMENT((#1129));
#1077=PRESENTATION_STYLE_ASSIGNMENT((#1130));
#1078=PRESENTATION_STYLE_ASSIGNMENT((#1131));
#1079=PRESENTATION_STYLE_ASSIGNMENT((#1132));
#1080=PRESENTATION_STYLE_ASSIGNMENT((#1133));
#1081=SURFACE_STYLE_USAGE(.BOTH.,#1134);
#1082=SURFACE_STYLE_USAGE(.BOTH.,#1135);
#1083=SURFACE_STYLE_USAGE(.BOTH.,#1136);
#1084=SURFACE_STYLE_USAGE(.BOTH.,#1137);
#1085=SURFACE_STYLE_USAGE(.BOTH.,#1138);
#1086=SURFACE_STYLE_USAGE(.BOTH.,#1139);
#1087=SURFACE_STYLE_USAGE(.BOTH.,#1140);
#1088=SURFACE_STYLE_USAGE(.BOTH.,#1141);
#1089=SURFACE_STYLE_USAGE(.BOTH.,#1142);
#1090=SURFACE_STYLE_USAGE(.BOTH.,#1143);
#1091=SURFACE_STYLE_USAGE(.BOTH.,#1144);
#1092=SURFACE_STYLE_USAGE(.BOTH.,#1145);
#1093=SURFACE_STYLE_USAGE(.BOTH.,#1146);
#1094=SURFACE_STYLE_USAGE(.BOTH.,#1147);
#1095=SURFACE_STYLE_USAGE(.BOTH.,#1148);
#1096=SURFACE_STYLE_USAGE(.BOTH.,#1149);
#1097=SURFACE_STYLE_USAGE(.BOTH.,#1150);
#1098=SURFACE_STYLE_USAGE(.BOTH.,#1151);
#1099=SURFACE_STYLE_USAGE(.BOTH.,#1152);
#1100=SURFACE_STYLE_USAGE(.BOTH.,#1153);
#1101=SURFACE_STYLE_USAGE(.BOTH.,#1154);
#1102=SURFACE_STYLE_USAGE(.BOTH.,#1155);
#1103=SURFACE_STYLE_USAGE(.BOTH.,#1156);
#1104=SURFACE_STYLE_USAGE(.BOTH.,#1157);
#1105=SURFACE_STYLE_USAGE(.BOTH.,#1158);
#1106=SURFACE_STYLE_USAGE(.BOTH.,#1159);
#1107=SURFACE_STYLE_USAGE(.BOTH.,#1160);
#1108=SURFACE_STYLE_USAGE(.BOTH.,#1161);
#1109=SURFACE_STYLE_USAGE(.BOTH.,#1162);
#1110=SURFACE_STYLE_USAGE(.BOTH.,#1163);
#1111=SURFACE_STYLE_USAGE(.BOTH.,#1164);
#1112=SURFACE_STYLE_USAGE(.BOTH.,#1165);
#1113=SURFACE_STYLE_USAGE(.BOTH.,#1166);
#1114=SURFACE_STYLE_USAGE(.BOTH.,#1167);
#1115=SURFACE_STYLE_USAGE(.BOTH.,#1168);
#1116=SURFACE_STYLE_USAGE(.BOTH.,#1169);
#1117=SURFACE_STYLE_USAGE(.BOTH.,#1170);
#1118=SURFACE_STYLE_USAGE(.BOTH.,#1171);
#1119=SURFACE_STYLE_USAGE(.BOTH.,#1172);
#1120=SURFACE_STYLE_USAGE(.BOTH.,#1173);
#1121=SURFACE_STYLE_USAGE(.BOTH.,#1174);
#1122=SURFACE_STYLE_USAGE(.BOTH.,#1175);
#1123=SURFACE_STYLE_USAGE(.BOTH.,#1176);
#1124=SURFACE_STYLE_USAGE(.BOTH.,#1177);
#1125=SURFACE_STYLE_USAGE(.BOTH.,#1178);
#1126=SURFACE_STYLE_USAGE(.BOTH.,#1179);
#1127=SURFACE_STYLE_USAGE(.BOTH.,#1180);
#1128=SURFACE_STYLE_USAGE(.BOTH.,#1181);
#1129=SURFACE_STYLE_USAGE(.BOTH.,#1182);
#1130=SURFACE_STYLE_USAGE(.BOTH.,#1183);
#1131=SURFACE_STYLE_USAGE(.BOTH.,#1184);
#1132=SURFACE_STYLE_USAGE(.BOTH.,#1185);
#1133=SURFACE_STYLE_USAGE(.BOTH.,#1186);
#1134=SURFACE_SIDE_STYLE('',(#1187));
#1135=SURFACE_SIDE_STYLE('',(#1188));
#1136=SURFACE_SIDE_STYLE('',(#1189));
#1137=SURFACE_SIDE_STYLE('',(#1190));
#1138=SURFACE_SIDE_STYLE('',(#1191));
#1139=SURFACE_SIDE_STYLE('',(#1192));
#1140=SURFACE_SIDE_STYLE('',(#1193));
#1141=SURFACE_SIDE_STYLE('',(#1194));
#1142=SURFACE_SIDE_STYLE('',(#1195));
#1143=SURFACE_SIDE_STYLE('',(#1196));
#1144=SURFACE_SIDE_STYLE('',(#1197));
#1145=SURFACE_SIDE_STYLE('',(#1198));
#1146=SURFACE_SIDE_STYLE('',(#1199));
#1147=SURFACE_SIDE_STYLE('',(#1200));
#1148=SURFACE_SIDE_STYLE('',(#1201));
#1149=SURFACE_SIDE_STYLE('',(#1202));
#1150=SURFACE_SIDE_STYLE('',(#1203));
#1151=SURFACE_SIDE_STYLE('',(#1204));
#1152=SURFACE_SIDE_STYLE('',(#1205));
#1153=SURFACE_SIDE_STYLE('',(#1206));
#1154=SURFACE_SIDE_STYLE('',(#1207));
#1155=SURFACE_SIDE_STYLE('',(#1208));
#1156=SURFACE_SIDE_STYLE('',(#1209));
#1157=SURFACE_SIDE_STYLE('',(#1210));
#1158=SURFACE_SIDE_STYLE('',(#1211));
#1159=SURFACE_SIDE_STYLE('',(#1212));
#1160=SURFACE_SIDE_STYLE('',(#1213));
#1161=SURFACE_SIDE_STYLE('',(#1214));
#1162=SURFACE_SIDE_STYLE('',(#1215));
#1163=SURFACE_SIDE_STYLE('',(#1216));
#1164=SURFACE_SIDE_STYLE('',(#1217));
#1165=SURFACE_SIDE_STYLE('',(#1218));
#1166=SURFACE_SIDE_STYLE('',(#1219));
#1167=SURFACE_SIDE_STYLE('',(#1220));
#1168=SURFACE_SIDE_STYLE('',(#1221));
#1169=SURFACE_SIDE_STYLE('',(#1222));
#1170=SURFACE_SIDE_STYLE('',(#1223));
#1171=SURFACE_SIDE_STYLE('',(#1224));
#1172=SURFACE_SIDE_STYLE('',(#1225));
#1173=SURFACE_SIDE_STYLE('',(#1226));
#1174=SURFACE_SIDE_STYLE('',(#1227));
#1175=SURFACE_SIDE_STYLE('',(#1228));
#1176=SURFACE_SIDE_STYLE('',(#1229));
#1177=SURFACE_SIDE_STYLE('',(#1230));
#1178=SURFACE_SIDE_STYLE('',(#1231));
#1179=SURFACE_SIDE_STYLE('',(#1232));
#1180=SURFACE_SIDE_STYLE('',(#1233));
#1181=SURFACE_SIDE_STYLE('',(#1234));
#1182=SURFACE_SIDE_STYLE('',(#1235));
#1183=SURFACE_SIDE_STYLE('',(#1236));
#1184=SURFACE_SIDE_STYLE('',(#1237));
#1185=SURFACE_SIDE_STYLE('',(#1238));
#1186=SURFACE_SIDE_STYLE('',(#1239));
#1187=SURFACE_STYLE_FILL_AREA(#1240);
#1188=SURFACE_STYLE_FILL_AREA(#1241);
#1189=SURFACE_STYLE_FILL_AREA(#1242);
#1190=SURFACE_STYLE_FILL_AREA(#1243);
#1191=SURFACE_STYLE_FILL_AREA(#1244);
#1192=SURFACE_STYLE_FILL_AREA(#1245);
#1193=SURFACE_STYLE_FILL_AREA(#1246);
#1194=SURFACE_STYLE_FILL_AREA(#1247);
#1195=SURFACE_STYLE_FILL_AREA(#1248);
#1196=SURFACE_STYLE_FILL_AREA(#1249);
#1197=SURFACE_STYLE_FILL_AREA(#1250);
#1198=SURFACE_STYLE_FILL_AREA(#1251);
#1199=SURFACE_STYLE_FILL_AREA(#1252);
#1200=SURFACE_STYLE_FILL_AREA(#1253);
#1201=SURFACE_STYLE_FILL_AREA(#1254);
#1202=SURFACE_STYLE_FILL_AREA(#1255);
#1203=SURFACE_STYLE_FILL_AREA(#1256);
#1204=SURFACE_STYLE_FILL_AREA(#1257);
#1205=SURFACE_STYLE_FILL_AREA(#1258);
#1206=SURFACE_STYLE_FILL_AREA(#1259);
#1207=SURFACE_STYLE_FILL_AREA(#1260);
#1208=SURFACE_STYLE_FILL_AREA(#1261);
#1209=SURFACE_STYLE_FILL_AREA(#1262);
#1210=SURFACE_STYLE_FILL_AREA(#1263);
#1211=SURFACE_STYLE_FILL_AREA(#1264);
#1212=SURFACE_STYLE_FILL_AREA(#1265);
#1213=SURFACE_STYLE_FILL_AREA(#1266);
#1214=SURFACE_STYLE_FILL_AREA(#1267);
#1215=SURFACE_STYLE_FILL_AREA(#1268);
#1216=SURFACE_STYLE_FILL_AREA(#1269);
#1217=SURFACE_STYLE_FILL_AREA(#1270);
#1218=SURFACE_STYLE_FILL_AREA(#1271);
#1219=SURFACE_STYLE_FILL_AREA(#1272);
#1220=SURFACE_STYLE_FILL_AREA(#1273);
#1221=SURFACE_STYLE_FILL_AREA(#1274);
#1222=SURFACE_STYLE_FILL_AREA(#1275);
#1223=SURFACE_STYLE_FILL_AREA(#1276);
#1224=SURFACE_STYLE_FILL_AREA(#1277);
#1225=SURFACE_STYLE_FILL_AREA(#1278);
#1226=SURFACE_STYLE_FILL_AREA(#1279);
#1227=SURFACE_STYLE_FILL_AREA(#1280);
#1228=SURFACE_STYLE_FILL_AREA(#1281);
#1229=SURFACE_STYLE_FILL_AREA(#1282);
#1230=SURFACE_STYLE_FILL_AREA(#1283);
#1231=SURFACE_STYLE_FILL_AREA(#1284);
#1232=SURFACE_STYLE_FILL_AREA(#1285);
#1233=SURFACE_STYLE_FILL_AREA(#1286);
#1234=SURFACE_STYLE_FILL_AREA(#1287);
#1235=SURFACE_STYLE_FILL_AREA(#1288);
#1236=SURFACE_STYLE_FILL_AREA(#1289);
#1237=SURFACE_STYLE_FILL_AREA(#1290);
#1238=SURFACE_STYLE_FILL_AREA(#1291);
#1239=SURFACE_STYLE_FILL_AREA(#1292);
#1240=FILL_AREA_STYLE('',(#1293));
#1241=FILL_AREA_STYLE('',(#1294));
#1242=FILL_AREA_STYLE('',(#1295));
#1243=FILL_AREA_STYLE('',(#1296));
#1244=FILL_AREA_STYLE('',(#1297));
#1245=FILL_AREA_STYLE('',(#1298));
#1246=FILL_AREA_STYLE('',(#1299));
#1247=FILL_AREA_STYLE('',(#1300));
#1248=FILL_AREA_STYLE('',(#1301));
#1249=FILL_AREA_STYLE('',(#1302));
#1250=FILL_AREA_STYLE('',(#1303));
#1251=FILL_AREA_STYLE('',(#1304));
#1252=FILL_AREA_STYLE('',(#1305));
#1253=FILL_AREA_STYLE('',(#1306));
#1254=FILL_AREA_STYLE('',(#1307));
#1255=FILL_AREA_STYLE('',(#1308));
#1256=FILL_AREA_STYLE('',(#1309));
#1257=FILL_AREA_STYLE('',(#1310));
#1258=FILL_AREA_STYLE('',(#1311));
#1259=FILL_AREA_STYLE('',(#1312));
#1260=FILL_AREA_STYLE('',(#1313));
#1261=FILL_AREA_STYLE('',(#1314));
#1262=FILL_AREA_STYLE('',(#1315));
#1263=FILL_AREA_STYLE('',(#1316));
#1264=FILL_AREA_STYLE('',(#1317));
#1265=FILL_AREA_STYLE('',(#1318));
#1266=FILL_AREA_STYLE('',(#1319));
#1267=FILL_AREA_STYLE('',(#1320));
#1268=FILL_AREA_STYLE('',(#1321));
#1269=FILL_AREA_STYLE('',(#1322));
#1270=FILL_AREA_STYLE('',(#1323));
#1271=FILL_AREA_STYLE('',(#1324));
#1272=FILL_AREA_STYLE('',(#1325));
#1273=FILL_AREA_STYLE('',(#1326));
#1274=FILL_AREA_STYLE('',(#1327));
#1275=FILL_AREA_STYLE('',(#1328));
#1276=FILL_AREA_STYLE('',(#1329));
#1277=FILL_AREA_STYLE('',(#1330));
#1278=FILL_AREA_STYLE('',(#1331));
#1279=FILL_AREA_STYLE('',(#1332));
#1280=FILL_AREA_STYLE('',(#1333));
#1281=FILL_AREA_STYLE('',(#1334));
#1282=FILL_AREA_STYLE('',(#1335));
#1283=FILL_AREA_STYLE('',(#1336));
#1284=FILL_AREA_STYLE('',(#1337));
#1285=FILL_AREA_STYLE('',(#1338));
#1286=FILL_AREA_STYLE('',(#1339));
#1287=FILL_AREA_STYLE('',(#1340));
#1288=FILL_AREA_STYLE('',(#1341));
#1289=FILL_AREA_STYLE('',(#1342));
#1290=FILL_AREA_STYLE('',(#1343));
#1291=FILL_AREA_STYLE('',(#1344));
#1292=FILL_AREA_STYLE('',(#1345));
#1293=FILL_AREA_STYLE_COLOUR('',#1346);
#1294=FILL_AREA_STYLE_COLOUR('',#1346);
#1295=FILL_AREA_STYLE_COLOUR('',#1346);
#1296=FILL_AREA_STYLE_COLOUR('',#1346);
#1297=FILL_AREA_STYLE_COLOUR('',#1346);
#1298=FILL_AREA_STYLE_COLOUR('',#1346);
#1299=FILL_AREA_STYLE_COLOUR('',#1346);
#1300=FILL_AREA_STYLE_COLOUR('',#1346);
#1301=FILL_AREA_STYLE_COLOUR('',#1346);
#1302=FILL_AREA_STYLE_COLOUR('',#1346);
#1303=FILL_AREA_STYLE_COLOUR('',#1346);
#1304=FILL_AREA_STYLE_COLOUR('',#1347);
#1305=FILL_AREA_STYLE_COLOUR('',#1347);
#1306=FILL_AREA_STYLE_COLOUR('',#1347);
#1307=FILL_AREA_STYLE_COLOUR('',#1346);
#1308=FILL_AREA_STYLE_COLOUR('',#1346);
#1309=FILL_AREA_STYLE_COLOUR('',#1346);
#1310=FILL_AREA_STYLE_COLOUR('',#1346);
#1311=FILL_AREA_STYLE_COLOUR('',#1346);
#1312=FILL_AREA_STYLE_COLOUR('',#1346);
#1313=FILL_AREA_STYLE_COLOUR('',#1346);
#1314=FILL_AREA_STYLE_COLOUR('',#1346);
#1315=FILL_AREA_STYLE_COLOUR('',#1346);
#1316=FILL_AREA_STYLE_COLOUR('',#1346);
#1317=FILL_AREA_STYLE_COLOUR('',#1346);
#1318=FILL_AREA_STYLE_COLOUR('',#1346);
#1319=FILL_AREA_STYLE_COLOUR('',#1346);
#1320=FILL_AREA_STYLE_COLOUR('',#1346);
#1321=FILL_AREA_STYLE_COLOUR('',#1346);
#1322=FILL_AREA_STYLE_COLOUR('',#1346);
#1323=FILL_AREA_STYLE_COLOUR('',#1346);
#1324=FILL_AREA_STYLE_COLOUR('',#1346);
#1325=FILL_AREA_STYLE_COLOUR('',#1346);
#1326=FILL_AREA_STYLE_COLOUR('',#1346);
#1327=FILL_AREA_STYLE_COLOUR('',#1346);
#1328=FILL_AREA_STYLE_COLOUR('',#1346);
#1329=FILL_AREA_STYLE_COLOUR('',#1346);
#1330=FILL_AREA_STYLE_COLOUR('',#1346);
#1331=FILL_AREA_STYLE_COLOUR('',#1346);
#1332=FILL_AREA_STYLE_COLOUR('',#1346);
#1333=FILL_AREA_STYLE_COLOUR('',#1346);
#1334=FILL_AREA_STYLE_COLOUR('',#1346);
#1335=FILL_AREA_STYLE_COLOUR('',#1346);
#1336=FILL_AREA_STYLE_COLOUR('',#1346);
#1337=FILL_AREA_STYLE_COLOUR('',#1346);
#1338=FILL_AREA_STYLE_COLOUR('',#1346);
#1339=FILL_AREA_STYLE_COLOUR('',#1346);
#1340=FILL_AREA_STYLE_COLOUR('',#1346);
#1341=FILL_AREA_STYLE_COLOUR('',#1346);
#1342=FILL_AREA_STYLE_COLOUR('',#1346);
#1343=FILL_AREA_STYLE_COLOUR('',#1346);
#1344=FILL_AREA_STYLE_COLOUR('',#1346);
#1345=FILL_AREA_STYLE_COLOUR('',#1346);
#1346=COLOUR_RGB('',0.699999988079071,0.699999988079071,0.699999988079071);
#1347=COLOUR_RGB('',0.699999988079071,0.21000000834465,0.21000000834465);
#1348=ADVANCED_FACE('',(#885),#943,.F.);
#1349=ADVANCED_FACE('',(#886),#944,.F.);
#1350=ADVANCED_FACE('',(#887),#945,.F.);
#1351=ADVANCED_FACE('',(#888),#946,.F.);
#1352=ADVANCED_FACE('',(#889),#20,.T.);
#1353=ADVANCED_FACE('',(#890),#21,.F.);
#1354=ADVANCED_FACE('',(#891),#947,.F.);
#1355=ADVANCED_FACE('',(#892),#948,.F.);
#1356=ADVANCED_FACE('',(#893),#22,.F.);
#1357=ADVANCED_FACE('',(#894),#23,.T.);
#1358=ADVANCED_FACE('',(#895),#949,.T.);
#1359=ADVANCED_FACE('',(#896,#897,#898),#950,.T.);
#1360=ADVANCED_FACE('',(#899,#900,#901),#951,.T.);
#1361=ADVANCED_FACE('',(#902,#903),#24,.T.);
#1362=ADVANCED_FACE('',(#904),#952,.F.);
#1363=ADVANCED_FACE('',(#905),#25,.T.);
#1364=ADVANCED_FACE('',(#906),#953,.F.);
#1365=ADVANCED_FACE('',(#907),#26,.T.);
#1366=ADVANCED_FACE('',(#908),#954,.F.);
#1367=ADVANCED_FACE('',(#909),#27,.T.);
#1368=ADVANCED_FACE('',(#910),#955,.F.);
#1369=ADVANCED_FACE('',(#911),#28,.T.);
#1370=ADVANCED_FACE('',(#912),#956,.F.);
#1371=ADVANCED_FACE('',(#913),#957,.F.);
#1372=ADVANCED_FACE('',(#914),#29,.F.);
#1373=ADVANCED_FACE('',(#915),#958,.F.);
#1374=ADVANCED_FACE('',(#916),#30,.F.);
#1375=ADVANCED_FACE('',(#917),#959,.F.);
#1376=ADVANCED_FACE('',(#918),#31,.F.);
#1377=ADVANCED_FACE('',(#919),#960,.F.);
#1378=ADVANCED_FACE('',(#920),#32,.F.);
#1379=ADVANCED_FACE('',(#921),#961,.F.);
#1380=ADVANCED_FACE('',(#922),#33,.T.);
#1381=ADVANCED_FACE('',(#923),#34,.F.);
#1382=ADVANCED_FACE('',(#924),#35,.T.);
#1383=ADVANCED_FACE('',(#925),#36,.F.);
#1384=ADVANCED_FACE('',(#926),#962,.F.);
#1385=ADVANCED_FACE('',(#927),#963,.F.);
#1386=ADVANCED_FACE('',(#928),#964,.F.);
#1387=ADVANCED_FACE('',(#929),#965,.F.);
#1388=ADVANCED_FACE('',(#930),#966,.F.);
#1389=ADVANCED_FACE('',(#931),#967,.F.);
#1390=ADVANCED_FACE('',(#932),#37,.F.);
#1391=ADVANCED_FACE('',(#933),#968,.F.);
#1392=ADVANCED_FACE('',(#934),#969,.F.);
#1393=ADVANCED_FACE('',(#935),#970,.F.);
#1394=ADVANCED_FACE('',(#936),#38,.T.);
#1395=ADVANCED_FACE('',(#937),#971,.F.);
#1396=ADVANCED_FACE('',(#938),#972,.F.);
#1397=ADVANCED_FACE('',(#939),#39,.F.);
#1398=ADVANCED_FACE('',(#940),#40,.T.);
#1399=ADVANCED_FACE('',(#941),#973,.F.);
#1400=ADVANCED_FACE('',(#942),#974,.F.);
#1401=CLOSED_SHELL('',(#1348,#1349,#1350,#1351,#1352,#1353,#1354,#1355,
#1356,#1357,#1358,#1359,#1360,#1361,#1362,#1363,#1364,#1365,#1366,#1367,
#1368,#1369,#1370,#1371,#1372,#1373,#1374,#1375,#1376,#1377,#1378,#1379,
#1380,#1381,#1382,#1383,#1384,#1385,#1386,#1387,#1388,#1389,#1390,#1391,
#1392,#1393,#1394,#1395,#1396,#1397,#1398,#1399,#1400));
#1402=MANIFOLD_SOLID_BREP('',#1401);
#1403=SHAPE_DEFINITION_REPRESENTATION(#2101,#1404);
#1404=SHAPE_REPRESENTATION('5010',(#1405),#2096);
#1405=AXIS2_PLACEMENT_3D('',#1797,#1501,#1502);
#1406=AXIS2_PLACEMENT_3D('',#1798,#1503,#1504);
#1407=AXIS2_PLACEMENT_3D('',#1799,#1505,#1506);
#1408=AXIS2_PLACEMENT_3D('',#1804,#1508,#1509);
#1409=AXIS2_PLACEMENT_3D('',#1808,#1511,#1512);
#1410=AXIS2_PLACEMENT_3D('',#1816,#1516,#1517);
#1411=AXIS2_PLACEMENT_3D('',#1819,#1519,#1520);
#1412=AXIS2_PLACEMENT_3D('',#1820,#1521,#1522);
#1413=AXIS2_PLACEMENT_3D('',#1825,#1524,#1525);
#1414=AXIS2_PLACEMENT_3D('',#1829,#1527,#1528);
#1415=AXIS2_PLACEMENT_3D('',#1837,#1532,#1533);
#1416=AXIS2_PLACEMENT_3D('',#1840,#1535,#1536);
#1417=AXIS2_PLACEMENT_3D('',#1843,#1539,#1540);
#1418=AXIS2_PLACEMENT_3D('',#1846,#1543,#1544);
#1419=AXIS2_PLACEMENT_3D('',#1848,#1546,#1547);
#1420=AXIS2_PLACEMENT_3D('',#1850,#1549,#1550);
#1421=AXIS2_PLACEMENT_3D('',#1852,#1552,#1553);
#1422=AXIS2_PLACEMENT_3D('',#1854,#1555,#1556);
#1423=AXIS2_PLACEMENT_3D('',#1856,#1558,#1559);
#1424=AXIS2_PLACEMENT_3D('',#1858,#1561,#1562);
#1425=AXIS2_PLACEMENT_3D('',#1859,#1563,#1564);
#1426=AXIS2_PLACEMENT_3D('',#1868,#1569,#1570);
#1427=AXIS2_PLACEMENT_3D('',#1878,#1575,#1576);
#1428=AXIS2_PLACEMENT_3D('',#1887,#1581,#1582);
#1429=AXIS2_PLACEMENT_3D('',#1889,#1583,#1584);
#1430=AXIS2_PLACEMENT_3D('',#1890,#1585,#1586);
#1431=AXIS2_PLACEMENT_3D('',#1899,#1591,#1592);
#1432=AXIS2_PLACEMENT_3D('',#1903,#1594,#1595);
#1433=AXIS2_PLACEMENT_3D('',#1904,#1596,#1597);
#1434=AXIS2_PLACEMENT_3D('',#1905,#1598,#1599);
#1435=AXIS2_PLACEMENT_3D('',#1911,#1603,#1604);
#1436=AXIS2_PLACEMENT_3D('',#1915,#1606,#1607);
#1437=AXIS2_PLACEMENT_3D('',#1916,#1608,#1609);
#1438=AXIS2_PLACEMENT_3D('',#1917,#1610,#1611);
#1439=AXIS2_PLACEMENT_3D('',#1923,#1615,#1616);
#1440=AXIS2_PLACEMENT_3D('',#1927,#1618,#1619);
#1441=AXIS2_PLACEMENT_3D('',#1928,#1620,#1621);
#1442=AXIS2_PLACEMENT_3D('',#1929,#1622,#1623);
#1443=AXIS2_PLACEMENT_3D('',#1935,#1627,#1628);
#1444=AXIS2_PLACEMENT_3D('',#1939,#1630,#1631);
#1445=AXIS2_PLACEMENT_3D('',#1940,#1632,#1633);
#1446=AXIS2_PLACEMENT_3D('',#1941,#1634,#1635);
#1447=AXIS2_PLACEMENT_3D('',#1947,#1639,#1640);
#1448=AXIS2_PLACEMENT_3D('',#1956,#1645,#1646);
#1449=AXIS2_PLACEMENT_3D('',#1957,#1647,#1648);
#1450=AXIS2_PLACEMENT_3D('',#1961,#1650,#1651);
#1451=AXIS2_PLACEMENT_3D('',#1962,#1652,#1653);
#1452=AXIS2_PLACEMENT_3D('',#1968,#1657,#1658);
#1453=AXIS2_PLACEMENT_3D('',#1969,#1659,#1660);
#1454=AXIS2_PLACEMENT_3D('',#1973,#1662,#1663);
#1455=AXIS2_PLACEMENT_3D('',#1974,#1664,#1665);
#1456=AXIS2_PLACEMENT_3D('',#1980,#1669,#1670);
#1457=AXIS2_PLACEMENT_3D('',#1981,#1671,#1672);
#1458=AXIS2_PLACEMENT_3D('',#1985,#1674,#1675);
#1459=AXIS2_PLACEMENT_3D('',#1986,#1676,#1677);
#1460=AXIS2_PLACEMENT_3D('',#1992,#1681,#1682);
#1461=AXIS2_PLACEMENT_3D('',#1993,#1683,#1684);
#1462=AXIS2_PLACEMENT_3D('',#1997,#1686,#1687);
#1463=AXIS2_PLACEMENT_3D('',#1998,#1688,#1689);
#1464=AXIS2_PLACEMENT_3D('',#2004,#1693,#1694);
#1465=AXIS2_PLACEMENT_3D('',#2005,#1695,#1696);
#1466=AXIS2_PLACEMENT_3D('',#2009,#1698,#1699);
#1467=AXIS2_PLACEMENT_3D('',#2010,#1700,#1701);
#1468=AXIS2_PLACEMENT_3D('',#2011,#1702,#1703);
#1469=AXIS2_PLACEMENT_3D('',#2015,#1705,#1706);
#1470=AXIS2_PLACEMENT_3D('',#2016,#1707,#1708);
#1471=AXIS2_PLACEMENT_3D('',#2017,#1709,#1710);
#1472=AXIS2_PLACEMENT_3D('',#2019,#1711,#1712);
#1473=AXIS2_PLACEMENT_3D('',#2022,#1714,#1715);
#1474=AXIS2_PLACEMENT_3D('',#2026,#1717,#1718);
#1475=AXIS2_PLACEMENT_3D('',#2027,#1719,#1720);
#1476=AXIS2_PLACEMENT_3D('',#2028,#1721,#1722);
#1477=AXIS2_PLACEMENT_3D('',#2031,#1725,#1726);
#1478=AXIS2_PLACEMENT_3D('',#2034,#1729,#1730);
#1479=AXIS2_PLACEMENT_3D('',#2037,#1733,#1734);
#1480=AXIS2_PLACEMENT_3D('',#2040,#1737,#1738);
#1481=AXIS2_PLACEMENT_3D('',#2041,#1739,#1740);
#1482=AXIS2_PLACEMENT_3D('',#2042,#1741,#1742);
#1483=AXIS2_PLACEMENT_3D('',#2043,#1743,#1744);
#1484=AXIS2_PLACEMENT_3D('',#2048,#1746,#1747);
#1485=AXIS2_PLACEMENT_3D('',#2051,#1749,#1750);
#1486=AXIS2_PLACEMENT_3D('',#2057,#1754,#1755);
#1487=AXIS2_PLACEMENT_3D('',#2063,#1759,#1760);
#1488=AXIS2_PLACEMENT_3D('',#2069,#1764,#1765);
#1489=AXIS2_PLACEMENT_3D('',#2073,#1767,#1768);
#1490=AXIS2_PLACEMENT_3D('',#2074,#1769,#1770);
#1491=AXIS2_PLACEMENT_3D('',#2075,#1771,#1772);
#1492=AXIS2_PLACEMENT_3D('',#2081,#1776,#1777);
#1493=AXIS2_PLACEMENT_3D('',#2087,#1781,#1782);
#1494=AXIS2_PLACEMENT_3D('',#2088,#1783,#1784);
#1495=AXIS2_PLACEMENT_3D('',#2089,#1785,#1786);
#1496=AXIS2_PLACEMENT_3D('',#2090,#1787,#1788);
#1497=AXIS2_PLACEMENT_3D('',#2091,#1789,#1790);
#1498=AXIS2_PLACEMENT_3D('',#2092,#1791,#1792);
#1499=AXIS2_PLACEMENT_3D('',#2093,#1793,#1794);
#1500=AXIS2_PLACEMENT_3D('',#2094,#1795,#1796);
#1501=DIRECTION('',(0.,0.,1.));
#1502=DIRECTION('',(1.,0.,0.));
#1503=DIRECTION('',(-1.86029976039131E-16,1.,3.00275740316573E-17));
#1504=DIRECTION('',(-1.,-1.86029976039131E-16,0.));
#1505=DIRECTION('',(0.,1.,0.));
#1506=DIRECTION('',(1.,0.,2.04923258749892E-16));
#1507=DIRECTION('',(-1.,-1.86029976039131E-16,0.));
#1508=DIRECTION('',(0.,1.,0.));
#1509=DIRECTION('',(1.,0.,0.));
#1510=DIRECTION('',(-0.149484870896438,0.,-0.988764012984431));
#1511=DIRECTION('',(0.,-1.,0.));
#1512=DIRECTION('',(-0.988764012984431,0.,0.149484870896437));
#1513=DIRECTION('',(0.159350050160965,0.,-0.987222143954286));
#1514=DIRECTION('',(-0.987222143954286,1.88437807213272E-16,-0.159350050160965));
#1515=DIRECTION('',(0.159350050160965,0.,-0.987222143954286));
#1516=DIRECTION('',(0.,-1.,0.));
#1517=DIRECTION('',(-0.988764012984431,0.,0.149484870896437));
#1518=DIRECTION('',(-0.149484870896438,0.,-0.988764012984431));
#1519=DIRECTION('',(1.86029976039131E-16,-1.,-3.00275740316573E-17));
#1520=DIRECTION('',(1.,1.86029976039131E-16,0.));
#1521=DIRECTION('',(0.,1.,0.));
#1522=DIRECTION('',(1.,0.,0.));
#1523=DIRECTION('',(1.,1.86029976039131E-16,0.));
#1524=DIRECTION('',(0.,1.,0.));
#1525=DIRECTION('',(1.,0.,0.));
#1526=DIRECTION('',(-0.149484870896438,0.,-0.988764012984431));
#1527=DIRECTION('',(0.,-1.,0.));
#1528=DIRECTION('',(-0.988764012984431,0.,0.149484870896437));
#1529=DIRECTION('',(0.159350050160965,0.,-0.987222143954286));
#1530=DIRECTION('',(0.987222143954286,-1.88437807213272E-16,0.159350050160965));
#1531=DIRECTION('',(0.159350050160965,0.,-0.987222143954286));
#1532=DIRECTION('',(0.,-1.,0.));
#1533=DIRECTION('',(-0.988764012984431,0.,0.149484870896437));
#1534=DIRECTION('',(-0.149484870896438,0.,-0.988764012984431));
#1535=DIRECTION('',(0.987222143954286,-1.88437807213272E-16,0.159350050160965));
#1536=DIRECTION('',(0.159350050160965,0.,-0.987222143954286));
#1537=DIRECTION('',(1.86029976039131E-16,1.,3.00275740316572E-17));
#1538=DIRECTION('',(1.86029976039131E-16,1.,3.0027574031657E-17));
#1539=DIRECTION('',(-0.987222143954286,2.96858024461822E-16,-0.159350050160965));
#1540=DIRECTION('',(-0.159350050160965,0.,0.987222143954286));
#1541=DIRECTION('',(-2.93064815359234E-16,-1.,-4.73043410886762E-17));
#1542=DIRECTION('',(-2.93064815359234E-16,-1.,-4.73043410886765E-17));
#1543=DIRECTION('',(0.,-1.,0.));
#1544=DIRECTION('',(0.,0.,-1.));
#1545=DIRECTION('',(1.86320522458181E-16,1.,-2.81686012832838E-17));
#1546=DIRECTION('',(0.,-1.,0.));
#1547=DIRECTION('',(0.,0.,-1.));
#1548=DIRECTION('',(-2.93522531553502E-16,-1.,4.43757834612471E-17));
#1549=DIRECTION('',(0.988764012984431,-1.88437807213272E-16,-0.149484870896438));
#1550=DIRECTION('',(-0.149484870896438,0.,-0.988764012984431));
#1551=DIRECTION('',(1.86320522458181E-16,1.,-2.81686012832834E-17));
#1552=DIRECTION('',(-0.988764012984431,2.96858024461822E-16,0.149484870896438));
#1553=DIRECTION('',(0.149484870896438,0.,0.988764012984431));
#1554=DIRECTION('',(-2.93522531553502E-16,-1.,4.43757834612465E-17));
#1555=DIRECTION('',(0.,1.,0.));
#1556=DIRECTION('',(0.,0.,1.));
#1557=DIRECTION('',(0.,1.,0.));
#1558=DIRECTION('',(0.,1.,0.));
#1559=DIRECTION('',(0.,0.,1.));
#1560=DIRECTION('',(0.,1.,0.));
#1561=DIRECTION('',(0.159350050160965,3.45535341140388E-17,-0.987222143954286));
#1562=DIRECTION('',(-0.987222143954286,0.,-0.159350050160965));
#1563=DIRECTION('',(0.,0.,1.));
#1564=DIRECTION('',(1.,0.,0.));
#1565=DIRECTION('',(1.,1.86029976039131E-16,0.));
#1566=DIRECTION('',(2.96858024461822E-16,-1.,0.));
#1567=DIRECTION('',(-1.,-1.86029976039131E-16,0.));
#1568=DIRECTION('',(-1.88437807213272E-16,1.,0.));
#1569=DIRECTION('',(0.,0.,1.));
#1570=DIRECTION('',(1.,0.,0.));
#1571=DIRECTION('',(2.96858024461822E-16,1.,0.));
#1572=DIRECTION('',(1.,1.86029976039131E-16,0.));
#1573=DIRECTION('',(-1.88437807213272E-16,-1.,0.));
#1574=DIRECTION('',(-1.,-1.86029976039131E-16,0.));
#1575=DIRECTION('',(0.,0.,-1.));
#1576=DIRECTION('',(-1.,0.,0.));
#1577=DIRECTION('',(0.,1.,0.));
#1578=DIRECTION('',(1.,1.86029976039131E-16,0.));
#1579=DIRECTION('',(0.,1.,0.));
#1580=DIRECTION('',(-1.,-1.86029976039131E-16,0.));
#1581=DIRECTION('',(0.,0.,1.));
#1582=DIRECTION('',(1.,0.,0.));
#1583=DIRECTION('',(0.,0.,1.));
#1584=DIRECTION('',(1.,0.,0.));
#1585=DIRECTION('',(-0.751657683618992,-1.88437807213272E-16,0.659553429720846));
#1586=DIRECTION('',(0.659553429720846,0.,0.751657683618992));
#1587=DIRECTION('',(-1.4164072567617E-16,1.,1.24284802036589E-16));
#1588=DIRECTION('',(0.659553429720846,0.,0.751657683618992));
#1589=DIRECTION('',(-1.4164072567617E-16,1.,1.24284802036589E-16));
#1590=DIRECTION('',(0.659553429720846,0.,0.751657683618992));
#1591=DIRECTION('',(0.,-1.,0.));
#1592=DIRECTION('',(0.,0.,-1.));
#1593=DIRECTION('',(-1.88437807213272E-16,1.,0.));
#1594=DIRECTION('',(0.,-1.,0.));
#1595=DIRECTION('',(0.751657683618992,0.,-0.659553429720846));
#1596=DIRECTION('',(0.,-1.,0.));
#1597=DIRECTION('',(0.751657683618992,0.,-0.659553429720847));
#1598=DIRECTION('',(-1.,-1.88437807213272E-16,3.08571924466438E-16));
#1599=DIRECTION('',(3.08571924466438E-16,0.,1.));
#1600=DIRECTION('',(-1.88437807213272E-16,1.,6.16297582203915E-32));
#1601=DIRECTION('',(3.08571924466438E-16,0.,1.));
#1602=DIRECTION('',(3.08571924466438E-16,0.,1.));
#1603=DIRECTION('',(0.,-1.,0.));
#1604=DIRECTION('',(0.,0.,-1.));
#1605=DIRECTION('',(-1.23259516440783E-32,1.,-1.88437807213272E-16));
#1606=DIRECTION('',(0.,-1.,0.));
#1607=DIRECTION('',(1.,0.,-7.73898260366086E-16));
#1608=DIRECTION('',(0.,-1.,0.));
#1609=DIRECTION('',(1.,0.,-7.73898260366086E-16));
#1610=DIRECTION('',(0.,-1.88437807213272E-16,-1.));
#1611=DIRECTION('',(0.,1.,-1.88437807213272E-16));
#1612=DIRECTION('',(-1.,0.,0.));
#1613=DIRECTION('',(0.,1.,-1.88437807213272E-16));
#1614=DIRECTION('',(-1.,0.,0.));
#1615=DIRECTION('',(0.,-1.,0.));
#1616=DIRECTION('',(0.,0.,-1.));
#1617=DIRECTION('',(1.88437807213272E-16,1.,0.));
#1618=DIRECTION('',(0.,-1.,0.));
#1619=DIRECTION('',(-2.90211847637282E-16,0.,1.));
#1620=DIRECTION('',(0.,-1.,0.));
#1621=DIRECTION('',(-2.90211847637282E-16,0.,1.));
#1622=DIRECTION('',(1.,-1.88437807213272E-16,0.));
#1623=DIRECTION('',(1.88437807213272E-16,1.,0.));
#1624=DIRECTION('',(1.88437807213272E-16,1.,0.));
#1625=DIRECTION('',(0.,0.,-1.));
#1626=DIRECTION('',(0.,0.,-1.));
#1627=DIRECTION('',(0.,-1.,0.));
#1628=DIRECTION('',(0.,0.,-1.));
#1629=DIRECTION('',(1.4164072567617E-16,1.,1.24284802036589E-16));
#1630=DIRECTION('',(0.,-1.,0.));
#1631=DIRECTION('',(-1.,0.,-1.09522342673894E-15));
#1632=DIRECTION('',(0.,-1.,0.));
#1633=DIRECTION('',(-1.,0.,-1.09522342673894E-15));
#1634=DIRECTION('',(0.751657683618993,-1.88437807213272E-16,0.659553429720845));
#1635=DIRECTION('',(0.659553429720845,0.,-0.751657683618993));
#1636=DIRECTION('',(1.4164072567617E-16,1.,1.24284802036589E-16));
#1637=DIRECTION('',(0.659553429720845,0.,-0.751657683618993));
#1638=DIRECTION('',(0.659553429720845,0.,-0.751657683618993));
#1639=DIRECTION('',(-0.751657683618993,2.96858024461822E-16,-0.659553429720845));
#1640=DIRECTION('',(-0.659553429720845,0.,0.751657683618993));
#1641=DIRECTION('',(0.659553429720845,0.,-0.751657683618993));
#1642=DIRECTION('',(-2.23135615030684E-16,-1.,-1.9579372817395E-16));
#1643=DIRECTION('',(0.659553429720845,0.,-0.751657683618993));
#1644=DIRECTION('',(-2.23135615030684E-16,-1.,-1.95793728173949E-16));
#1645=DIRECTION('',(0.,-1.,0.));
#1646=DIRECTION('',(0.,0.,-1.));
#1647=DIRECTION('',(0.,-1.,0.));
#1648=DIRECTION('',(-1.,0.,-2.9709298569532E-15));
#1649=DIRECTION('',(-2.96858024461822E-16,-1.,-1.84889274661175E-32));
#1650=DIRECTION('',(0.,-1.,0.));
#1651=DIRECTION('',(-1.,0.,-2.9709298569532E-15));
#1652=DIRECTION('',(-1.,2.96858024461822E-16,0.));
#1653=DIRECTION('',(-2.96858024461822E-16,-1.,0.));
#1654=DIRECTION('',(0.,0.,-1.));
#1655=DIRECTION('',(-2.96858024461822E-16,-1.,-1.84889274661175E-32));
#1656=DIRECTION('',(0.,0.,-1.));
#1657=DIRECTION('',(0.,-1.,0.));
#1658=DIRECTION('',(0.,0.,-1.));
#1659=DIRECTION('',(0.,-1.,0.));
#1660=DIRECTION('',(-5.23963460703935E-16,0.,1.));
#1661=DIRECTION('',(-1.84889274661175E-32,-1.,2.96858024461822E-16));
#1662=DIRECTION('',(0.,-1.,0.));
#1663=DIRECTION('',(1.74654486901312E-16,0.,1.));
#1664=DIRECTION('',(0.,2.96858024461822E-16,1.));
#1665=DIRECTION('',(0.,-1.,2.96858024461822E-16));
#1666=DIRECTION('',(-1.,0.,0.));
#1667=DIRECTION('',(0.,-1.,2.96858024461822E-16));
#1668=DIRECTION('',(-1.,0.,0.));
#1669=DIRECTION('',(0.,-1.,0.));
#1670=DIRECTION('',(0.,0.,-1.));
#1671=DIRECTION('',(0.,-1.,0.));
#1672=DIRECTION('',(1.,0.,-1.39723589521049E-15));
#1673=DIRECTION('',(2.96858024461822E-16,-1.,-7.39557098644699E-32));
#1674=DIRECTION('',(0.,-1.,0.));
#1675=DIRECTION('',(1.,0.,-2.79447179042098E-15));
#1676=DIRECTION('',(1.,2.96858024461822E-16,-3.08571924466438E-16));
#1677=DIRECTION('',(-3.08571924466438E-16,0.,-1.));
#1678=DIRECTION('',(3.08571924466438E-16,0.,1.));
#1679=DIRECTION('',(2.96858024461822E-16,-1.,1.84889274661175E-32));
#1680=DIRECTION('',(3.08571924466438E-16,0.,1.));
#1681=DIRECTION('',(0.,-1.,0.));
#1682=DIRECTION('',(0.,0.,-1.));
#1683=DIRECTION('',(0.,-1.,0.));
#1684=DIRECTION('',(0.751657683618993,0.,-0.659553429720845));
#1685=DIRECTION('',(2.23135615030684E-16,-1.,-1.9579372817395E-16));
#1686=DIRECTION('',(0.,-1.,0.));
#1687=DIRECTION('',(0.751657683618993,0.,-0.659553429720846));
#1688=DIRECTION('',(0.751657683618992,2.96858024461822E-16,-0.659553429720846));
#1689=DIRECTION('',(-0.659553429720846,0.,-0.751657683618992));
#1690=DIRECTION('',(0.659553429720846,0.,0.751657683618992));
#1691=DIRECTION('',(2.23135615030683E-16,-1.,-1.9579372817395E-16));
#1692=DIRECTION('',(0.659553429720846,0.,0.751657683618992));
#1693=DIRECTION('',(0.,1.,0.));
#1694=DIRECTION('',(0.,0.,1.));
#1695=DIRECTION('',(0.,1.,0.));
#1696=DIRECTION('',(-1.,0.,0.));
#1697=DIRECTION('',(2.96858024461822E-16,-1.,1.60237371373018E-31));
#1698=DIRECTION('',(0.,1.,0.));
#1699=DIRECTION('',(-1.,0.,-6.35985294315497E-16));
#1700=DIRECTION('',(0.,1.,0.));
#1701=DIRECTION('',(0.,0.,1.));
#1702=DIRECTION('',(0.,1.,0.));
#1703=DIRECTION('',(-1.,0.,0.));
#1704=DIRECTION('',(-1.88437807213272E-16,1.,-9.24446373305873E-32));
#1705=DIRECTION('',(0.,1.,0.));
#1706=DIRECTION('',(-1.,0.,0.));
#1707=DIRECTION('',(0.,1.,0.));
#1708=DIRECTION('',(0.,0.,1.));
#1709=DIRECTION('',(0.,1.,0.));
#1710=DIRECTION('',(0.751657683618992,0.,0.659553429720847));
#1711=DIRECTION('',(0.,1.,0.));
#1712=DIRECTION('',(0.751657683618992,0.,0.659553429720846));
#1713=DIRECTION('',(-2.96858024461822E-16,-1.,-1.84889274661175E-32));
#1714=DIRECTION('',(0.,1.,0.));
#1715=DIRECTION('',(0.,0.,1.));
#1716=DIRECTION('',(1.88437807213272E-16,1.,0.));
#1717=DIRECTION('',(0.,1.,0.));
#1718=DIRECTION('',(0.751657683618988,0.,0.659553429720851));
#1719=DIRECTION('',(0.,1.,0.));
#1720=DIRECTION('',(0.751657683618988,0.,0.659553429720851));
#1721=DIRECTION('',(1.,-1.88437807213272E-16,0.));
#1722=DIRECTION('',(1.88437807213272E-16,1.,0.));
#1723=DIRECTION('',(0.,0.,-1.));
#1724=DIRECTION('',(0.,0.,-1.));
#1725=DIRECTION('',(-1.,2.96858024461822E-16,0.));
#1726=DIRECTION('',(-2.96858024461822E-16,-1.,0.));
#1727=DIRECTION('',(0.,0.,-1.));
#1728=DIRECTION('',(0.,0.,-1.));
#1729=DIRECTION('',(1.,2.96858024461822E-16,-1.15931792580304E-16));
#1730=DIRECTION('',(-2.96858024461822E-16,1.,0.));
#1731=DIRECTION('',(1.15931792580304E-16,0.,1.));
#1732=DIRECTION('',(1.15931792580304E-16,0.,1.));
#1733=DIRECTION('',(-1.,-1.88437807213272E-16,1.15931792580304E-16));
#1734=DIRECTION('',(1.88437807213272E-16,-1.,0.));
#1735=DIRECTION('',(1.15931792580304E-16,0.,1.));
#1736=DIRECTION('',(1.15931792580304E-16,0.,1.));
#1737=DIRECTION('',(1.86029976039131E-16,-1.,-3.00275740316573E-17));
#1738=DIRECTION('',(1.,1.86029976039131E-16,0.));
#1739=DIRECTION('',(-1.86029976039131E-16,1.,3.00275740316573E-17));
#1740=DIRECTION('',(-1.,-1.86029976039131E-16,0.));
#1741=DIRECTION('',(0.,-1.,0.));
#1742=DIRECTION('',(0.,0.,-1.));
#1743=DIRECTION('',(0.,-1.,0.));
#1744=DIRECTION('',(0.987222143954287,0.,-0.159350050160966));
#1745=DIRECTION('',(2.93064815359234E-16,-1.,-4.73043410886766E-17));
#1746=DIRECTION('',(0.,-1.,0.));
#1747=DIRECTION('',(0.987222143954286,0.,-0.159350050160966));
#1748=DIRECTION('',(2.93522531553502E-16,-1.,4.43757834612468E-17));
#1749=DIRECTION('',(0.987222143954286,2.96858024461823E-16,-0.159350050160966));
#1750=DIRECTION('',(-0.159350050160966,0.,-0.987222143954286));
#1751=DIRECTION('',(0.159350050160966,0.,0.987222143954286));
#1752=DIRECTION('',(2.93064815359234E-16,-1.,-4.73043410886766E-17));
#1753=DIRECTION('',(0.159350050160966,0.,0.987222143954286));
#1754=DIRECTION('',(0.159350050160966,3.45535341140388E-17,0.987222143954286));
#1755=DIRECTION('',(0.987222143954286,0.,-0.159350050160966));
#1756=DIRECTION('',(-1.86029976039131E-16,1.,3.00275740316573E-17));
#1757=DIRECTION('',(0.987222143954286,1.88437807213272E-16,-0.159350050160966));
#1758=DIRECTION('',(-0.987222143954286,-1.88437807213272E-16,0.159350050160966));
#1759=DIRECTION('',(-0.987222143954286,-1.88437807213272E-16,0.159350050160966));
#1760=DIRECTION('',(0.159350050160966,0.,0.987222143954286));
#1761=DIRECTION('',(-1.86029976039131E-16,1.,3.00275740316573E-17));
#1762=DIRECTION('',(0.159350050160966,0.,0.987222143954286));
#1763=DIRECTION('',(0.159350050160966,0.,0.987222143954286));
#1764=DIRECTION('',(0.,-1.,0.));
#1765=DIRECTION('',(0.,0.,-1.));
#1766=DIRECTION('',(-1.86320522458181E-16,1.,-2.81686012832836E-17));
#1767=DIRECTION('',(0.,-1.,0.));
#1768=DIRECTION('',(0.987222143954286,0.,-0.159350050160966));
#1769=DIRECTION('',(0.,-1.,0.));
#1770=DIRECTION('',(0.987222143954286,0.,-0.159350050160966));
#1771=DIRECTION('',(0.988764012984431,2.96858024461822E-16,0.149484870896436));
#1772=DIRECTION('',(0.149484870896436,0.,-0.988764012984431));
#1773=DIRECTION('',(-0.149484870896436,0.,0.988764012984431));
#1774=DIRECTION('',(-0.149484870896436,0.,0.988764012984431));
#1775=DIRECTION('',(2.93522531553502E-16,-1.,4.43757834612466E-17));
#1776=DIRECTION('',(-0.988764012984431,-1.88437807213272E-16,-0.149484870896436));
#1777=DIRECTION('',(-0.149484870896436,0.,0.988764012984431));
#1778=DIRECTION('',(-1.86320522458181E-16,1.,-2.81686012832835E-17));
#1779=DIRECTION('',(-0.149484870896436,0.,0.988764012984431));
#1780=DIRECTION('',(-0.149484870896436,0.,0.988764012984431));
#1781=DIRECTION('',(0.,1.,0.));
#1782=DIRECTION('',(0.,0.,1.));
#1783=DIRECTION('',(0.,1.,0.));
#1784=DIRECTION('',(-0.988764012984431,0.,-0.149484870896436));
#1785=DIRECTION('',(0.,1.,0.));
#1786=DIRECTION('',(-0.988764012984431,0.,-0.149484870896436));
#1787=DIRECTION('',(0.,1.,0.));
#1788=DIRECTION('',(0.,0.,1.));
#1789=DIRECTION('',(0.,1.,0.));
#1790=DIRECTION('',(-0.988764012984431,0.,-0.149484870896437));
#1791=DIRECTION('',(0.,1.,0.));
#1792=DIRECTION('',(-0.988764012984431,0.,-0.149484870896436));
#1793=DIRECTION('',(1.86029976039131E-16,-1.,-3.00275740316573E-17));
#1794=DIRECTION('',(1.,1.86029976039131E-16,0.));
#1795=DIRECTION('',(-1.86029976039131E-16,1.,3.00275740316573E-17));
#1796=DIRECTION('',(-1.,-1.86029976039131E-16,0.));
#1797=CARTESIAN_POINT('',(0.,0.,0.));
#1798=CARTESIAN_POINT('',(0.161556803226855,-0.25,-3.06935945051196));
#1799=CARTESIAN_POINT('',(-2.27467100832316,-0.25,0.140280550448926));
#1800=CARTESIAN_POINT('',(-0.163016739720865,-0.25,0.));
#1801=CARTESIAN_POINT('',(-0.182141155942457,-0.25,-0.17607557772965));
#1802=CARTESIAN_POINT('',(0.161556803226855,-0.25,0.));
#1803=CARTESIAN_POINT('',(-0.664461369487719,-0.25,0.));
#1804=CARTESIAN_POINT('',(-2.27467100832316,-0.25,0.140280550448926));
#1805=CARTESIAN_POINT('',(-0.676523162434672,-0.25,-0.101333142281433));
#1806=CARTESIAN_POINT('',(-0.676523162434672,-0.25,-0.101333142281433));
#1807=CARTESIAN_POINT('',(-0.844822589000933,-0.25,-1.21454557238696));
#1808=CARTESIAN_POINT('',(1.6644654209736,-0.25,-1.59390868561439));
#1809=CARTESIAN_POINT('',(-0.840909629569275,-0.25,-1.99830767769628));
#1810=CARTESIAN_POINT('',(-0.840909629569275,-0.25,-1.99830767769628));
#1811=CARTESIAN_POINT('',(-0.655167875203998,-0.25,-3.14903447559244));
#1812=CARTESIAN_POINT('',(-0.161556803226855,-0.25,-3.06935945051196));
#1813=CARTESIAN_POINT('',(-0.161556803226855,-0.25,-3.06935945051196));
#1814=CARTESIAN_POINT('',(-0.347298557592132,-0.25,-1.9186326526158));
#1815=CARTESIAN_POINT('',(-0.347298557592132,-0.25,-1.9186326526158));
#1816=CARTESIAN_POINT('',(1.6644654209736,-0.25,-1.59390868561439));
#1817=CARTESIAN_POINT('',(-0.350440582508718,-0.25,-1.28928800783518));
#1818=CARTESIAN_POINT('',(-0.182141155942457,-0.25,-0.176075577729652));
#1819=CARTESIAN_POINT('',(0.655167875203998,0.25,-3.14903447559244));
#1820=CARTESIAN_POINT('',(-2.27467100832316,0.25,0.140280550448926));
#1821=CARTESIAN_POINT('',(-0.664461369487719,0.25,-2.71050543121376E-17));
#1822=CARTESIAN_POINT('',(-0.676523162434672,0.25,-0.101333142281433));
#1823=CARTESIAN_POINT('',(0.655167875203998,0.25,0.));
#1824=CARTESIAN_POINT('',(-0.163016739720865,0.25,0.));
#1825=CARTESIAN_POINT('',(-2.27467100832316,0.25,0.140280550448926));
#1826=CARTESIAN_POINT('',(-0.182141155942456,0.25,-0.176075577729651));
#1827=CARTESIAN_POINT('',(-0.182141155942457,0.25,-0.176075577729653));
#1828=CARTESIAN_POINT('',(-0.350440582508718,0.25,-1.28928800783518));
#1829=CARTESIAN_POINT('',(1.6644654209736,0.25,-1.59390868561439));
#1830=CARTESIAN_POINT('',(-0.347298557592131,0.25,-1.9186326526158));
#1831=CARTESIAN_POINT('',(-0.347298557592132,0.25,-1.9186326526158));
#1832=CARTESIAN_POINT('',(-0.161556803226855,0.25,-3.06935945051196));
#1833=CARTESIAN_POINT('',(-0.655167875203998,0.25,-3.14903447559244));
#1834=CARTESIAN_POINT('',(-0.655167875203998,0.25,-3.14903447559244));
#1835=CARTESIAN_POINT('',(-0.840909629569275,0.25,-1.99830767769628));
#1836=CARTESIAN_POINT('',(-0.840909629569275,0.25,-1.99830767769628));
#1837=CARTESIAN_POINT('',(1.6644654209736,0.25,-1.59390868561439));
#1838=CARTESIAN_POINT('',(-0.844822589000933,0.25,-1.21454557238696));
#1839=CARTESIAN_POINT('',(-0.676523162434672,0.25,-0.101333142281433));
#1840=CARTESIAN_POINT('',(-0.840909629569275,-0.25,-1.99830767769628));
#1841=CARTESIAN_POINT('',(-0.655167875203998,-0.25,-3.14903447559244));
#1842=CARTESIAN_POINT('',(-0.840909629569275,-0.25,-1.99830767769628));
#1843=CARTESIAN_POINT('',(-0.347298557592131,0.25,-1.9186326526158));
#1844=CARTESIAN_POINT('',(-0.347298557592131,0.25,-1.9186326526158));
#1845=CARTESIAN_POINT('',(-0.161556803226855,0.25,-3.06935945051196));
#1846=CARTESIAN_POINT('',(1.6644654209736,0.,-1.59390868561439));
#1847=CARTESIAN_POINT('',(-0.844822589000933,-0.25,-1.21454557238696));
#1848=CARTESIAN_POINT('',(1.6644654209736,0.,-1.59390868561439));
#1849=CARTESIAN_POINT('',(-0.350440582508718,0.25,-1.28928800783518));
#1850=CARTESIAN_POINT('',(-0.676523162434672,-0.25,-0.101333142281433));
#1851=CARTESIAN_POINT('',(-0.676523162434672,-0.25,-0.101333142281433));
#1852=CARTESIAN_POINT('',(-0.182141155942456,0.25,-0.176075577729653));
#1853=CARTESIAN_POINT('',(-0.182141155942456,0.25,-0.176075577729651));
#1854=CARTESIAN_POINT('',(-2.27467100832316,0.,0.140280550448926));
#1855=CARTESIAN_POINT('',(-0.664461369487719,0.,0.));
#1856=CARTESIAN_POINT('',(-2.27467100832316,0.,0.140280550448926));
#1857=CARTESIAN_POINT('',(-0.163016739720865,0.,0.));
#1858=CARTESIAN_POINT('',(-0.531765107209712,0.125,-3.12911571932232));
#1859=CARTESIAN_POINT('',(0.,0.,2.98126212046026));
#1860=CARTESIAN_POINT('',(0.161556803226855,-0.25,2.98126212046026));
#1861=CARTESIAN_POINT('',(0.158362339215426,-0.25,2.98126212046026));
#1862=CARTESIAN_POINT('',(0.658362339215426,-0.25,2.98126212046026));
#1863=CARTESIAN_POINT('',(0.158362339215426,0.25,2.98126212046026));
#1864=CARTESIAN_POINT('',(0.158362339215426,0.25,2.98126212046026));
#1865=CARTESIAN_POINT('',(0.655167875203998,0.25,2.98126212046026));
#1866=CARTESIAN_POINT('',(0.658362339215426,0.25,2.98126212046026));
#1867=CARTESIAN_POINT('',(0.658362339215426,-0.25,2.98126212046026));
#1868=CARTESIAN_POINT('',(0.,0.,2.98126212046026));
#1869=CARTESIAN_POINT('',(1.6,0.,2.98126212046026));
#1870=CARTESIAN_POINT('',(-0.158362339215426,0.25,2.98126212046026));
#1871=CARTESIAN_POINT('',(-0.158362339215426,-0.25,2.98126212046026));
#1872=CARTESIAN_POINT('',(-0.158362339215426,0.25,2.98126212046026));
#1873=CARTESIAN_POINT('',(0.161556803226855,-0.25,2.98126212046026));
#1874=CARTESIAN_POINT('',(-0.658362339215426,-0.25,2.98126212046026));
#1875=CARTESIAN_POINT('',(-0.658362339215426,-0.25,2.98126212046026));
#1876=CARTESIAN_POINT('',(-0.658362339215426,0.25,2.98126212046026));
#1877=CARTESIAN_POINT('',(0.655167875203998,0.25,2.98126212046026));
#1878=CARTESIAN_POINT('',(1.6,0.,0.));
#1879=CARTESIAN_POINT('',(0.664461369487719,0.,0.));
#1880=CARTESIAN_POINT('',(0.664461369487719,0.25,0.));
#1881=CARTESIAN_POINT('',(0.664461369487719,-0.25,2.71050543121376E-17));
#1882=CARTESIAN_POINT('',(0.655167875203998,0.25,0.));
#1883=CARTESIAN_POINT('',(0.163016739720864,0.25,0.));
#1884=CARTESIAN_POINT('',(0.163016739720864,0.,0.));
#1885=CARTESIAN_POINT('',(0.163016739720865,-0.25,0.));
#1886=CARTESIAN_POINT('',(0.161556803226855,-0.25,0.));
#1887=CARTESIAN_POINT('',(0.,0.,0.));
#1888=CARTESIAN_POINT('',(1.6,0.,0.));
#1889=CARTESIAN_POINT('',(0.,0.,-0.298126212046026));
#1890=CARTESIAN_POINT('',(0.703536781526686,-0.25,3.18007829724641));
#1891=CARTESIAN_POINT('',(1.12895182626838,-0.25,3.66490101622241));
#1892=CARTESIAN_POINT('',(1.12895182626838,0.25,3.66490101622241));
#1893=CARTESIAN_POINT('',(1.12895182626838,-0.25,3.66490101622241));
#1894=CARTESIAN_POINT('',(0.703536781526686,-0.25,3.18007829724641));
#1895=CARTESIAN_POINT('',(0.703536781526685,-0.25,3.18007829724641));
#1896=CARTESIAN_POINT('',(0.703536781526685,-0.25,3.18007829724641));
#1897=CARTESIAN_POINT('',(0.703536781526685,0.25,3.18007829724641));
#1898=CARTESIAN_POINT('',(0.703536781526686,0.25,3.18007829724641));
#1899=CARTESIAN_POINT('',(0.533676835869996,0.,4.18723408099463));
#1900=CARTESIAN_POINT('',(1.32562642059628,-0.25,4.18723408099463));
#1901=CARTESIAN_POINT('',(1.32562642059628,0.25,4.18723408099463));
#1902=CARTESIAN_POINT('',(1.32562642059628,-0.25,4.18723408099463));
#1903=CARTESIAN_POINT('',(0.533676835869996,-0.25,4.18723408099463));
#1904=CARTESIAN_POINT('',(0.533676835869996,0.25,4.18723408099463));
#1905=CARTESIAN_POINT('',(1.32562642059628,-0.25,4.18723408099463));
#1906=CARTESIAN_POINT('',(1.32562642059628,-0.25,6.99812408496433));
#1907=CARTESIAN_POINT('',(1.32562642059628,0.25,6.99812408496433));
#1908=CARTESIAN_POINT('',(1.32562642059628,-0.25,6.99812408496433));
#1909=CARTESIAN_POINT('',(1.32562642059628,-0.25,4.18723408099463));
#1910=CARTESIAN_POINT('',(1.32562642059628,0.25,4.18723408099463));
#1911=CARTESIAN_POINT('',(0.204856698775087,0.,6.99812408496433));
#1912=CARTESIAN_POINT('',(0.204856698775087,-0.25,8.11889380678552));
#1913=CARTESIAN_POINT('',(0.204856698775087,0.25,8.11889380678552));
#1914=CARTESIAN_POINT('',(0.204856698775087,-0.25,8.11889380678552));
#1915=CARTESIAN_POINT('',(0.204856698775087,-0.25,6.99812408496433));
#1916=CARTESIAN_POINT('',(0.204856698775087,0.25,6.99812408496433));
#1917=CARTESIAN_POINT('',(0.204856698775087,-0.25,8.11889380678552));
#1918=CARTESIAN_POINT('',(0.204856698775087,0.25,8.11889380678552));
#1919=CARTESIAN_POINT('',(-0.204856698775087,0.25,8.11889380678552));
#1920=CARTESIAN_POINT('',(-0.204856698775087,-0.25,8.11889380678552));
#1921=CARTESIAN_POINT('',(-0.204856698775087,-0.25,8.11889380678552));
#1922=CARTESIAN_POINT('',(0.204856698775087,-0.25,8.11889380678552));
#1923=CARTESIAN_POINT('',(-0.204856698775087,0.,6.99812408496433));
#1924=CARTESIAN_POINT('',(-1.32562642059628,-0.25,6.99812408496433));
#1925=CARTESIAN_POINT('',(-1.32562642059628,0.25,6.99812408496433));
#1926=CARTESIAN_POINT('',(-1.32562642059628,-0.25,6.99812408496433));
#1927=CARTESIAN_POINT('',(-0.204856698775087,-0.25,6.99812408496433));
#1928=CARTESIAN_POINT('',(-0.204856698775087,0.25,6.99812408496433));
#1929=CARTESIAN_POINT('',(-1.32562642059628,-0.25,6.99812408496433));
#1930=CARTESIAN_POINT('',(-1.32562642059628,-0.25,4.18723408099463));
#1931=CARTESIAN_POINT('',(-1.32562642059628,0.25,4.18723408099463));
#1932=CARTESIAN_POINT('',(-1.32562642059628,-0.25,4.18723408099463));
#1933=CARTESIAN_POINT('',(-1.32562642059628,-0.25,6.99812408496433));
#1934=CARTESIAN_POINT('',(-1.32562642059628,0.25,6.99812408496433));
#1935=CARTESIAN_POINT('',(-0.533676835869996,0.,4.18723408099463));
#1936=CARTESIAN_POINT('',(-1.12895182626838,-0.25,3.66490101622241));
#1937=CARTESIAN_POINT('',(-1.12895182626838,0.25,3.66490101622241));
#1938=CARTESIAN_POINT('',(-1.12895182626838,-0.25,3.66490101622241));
#1939=CARTESIAN_POINT('',(-0.533676835869996,-0.25,4.18723408099463));
#1940=CARTESIAN_POINT('',(-0.533676835869996,0.25,4.18723408099463));
#1941=CARTESIAN_POINT('',(-1.12895182626838,-0.25,3.66490101622241));
#1942=CARTESIAN_POINT('',(-0.703536781526686,-0.25,3.18007829724641));
#1943=CARTESIAN_POINT('',(-0.703536781526686,0.25,3.18007829724641));
#1944=CARTESIAN_POINT('',(-0.703536781526686,-0.25,3.18007829724641));
#1945=CARTESIAN_POINT('',(-1.12895182626838,-0.25,3.66490101622241));
#1946=CARTESIAN_POINT('',(-1.12895182626838,0.25,3.66490101622241));
#1947=CARTESIAN_POINT('',(-0.753122984458881,0.25,3.99467773108284));
#1948=CARTESIAN_POINT('',(-0.753122984458881,0.25,3.99467773108284));
#1949=CARTESIAN_POINT('',(-0.753122984458882,0.25,3.99467773108284));
#1950=CARTESIAN_POINT('',(-0.327707939717189,0.25,3.50985501210683));
#1951=CARTESIAN_POINT('',(-0.753122984458882,0.25,3.99467773108284));
#1952=CARTESIAN_POINT('',(-0.753122984458882,-0.25,3.99467773108284));
#1953=CARTESIAN_POINT('',(-0.753122984458882,-0.25,3.99467773108284));
#1954=CARTESIAN_POINT('',(-0.327707939717189,-0.25,3.50985501210683));
#1955=CARTESIAN_POINT('',(-0.327707939717189,0.25,3.50985501210683));
#1956=CARTESIAN_POINT('',(-0.533676835869996,0.,4.18723408099463));
#1957=CARTESIAN_POINT('',(-0.533676835869996,0.25,4.18723408099463));
#1958=CARTESIAN_POINT('',(-0.825626420596281,0.25,4.18723408099463));
#1959=CARTESIAN_POINT('',(-0.82562642059628,0.25,4.18723408099463));
#1960=CARTESIAN_POINT('',(-0.825626420596281,-0.25,4.18723408099463));
#1961=CARTESIAN_POINT('',(-0.533676835869996,-0.25,4.18723408099463));
#1962=CARTESIAN_POINT('',(-0.82562642059628,0.25,6.99812408496433));
#1963=CARTESIAN_POINT('',(-0.825626420596281,0.25,6.99812408496433));
#1964=CARTESIAN_POINT('',(-0.82562642059628,0.25,6.99812408496433));
#1965=CARTESIAN_POINT('',(-0.82562642059628,0.25,6.99812408496433));
#1966=CARTESIAN_POINT('',(-0.82562642059628,-0.25,6.99812408496433));
#1967=CARTESIAN_POINT('',(-0.825626420596281,-0.25,6.99812408496433));
#1968=CARTESIAN_POINT('',(-0.204856698775087,0.,6.99812408496433));
#1969=CARTESIAN_POINT('',(-0.204856698775087,0.25,6.99812408496433));
#1970=CARTESIAN_POINT('',(-0.204856698775087,0.25,7.61889380678552));
#1971=CARTESIAN_POINT('',(-0.204856698775087,0.25,7.61889380678552));
#1972=CARTESIAN_POINT('',(-0.204856698775087,-0.25,7.61889380678552));
#1973=CARTESIAN_POINT('',(-0.204856698775087,-0.25,6.99812408496433));
#1974=CARTESIAN_POINT('',(0.204856698775087,0.25,7.61889380678552));
#1975=CARTESIAN_POINT('',(0.204856698775087,0.25,7.61889380678552));
#1976=CARTESIAN_POINT('',(0.204856698775087,0.25,7.61889380678552));
#1977=CARTESIAN_POINT('',(0.204856698775087,0.25,7.61889380678552));
#1978=CARTESIAN_POINT('',(0.204856698775087,-0.25,7.61889380678552));
#1979=CARTESIAN_POINT('',(0.204856698775087,-0.25,7.61889380678552));
#1980=CARTESIAN_POINT('',(0.204856698775087,0.,6.99812408496433));
#1981=CARTESIAN_POINT('',(0.204856698775087,0.25,6.99812408496433));
#1982=CARTESIAN_POINT('',(0.825626420596281,0.25,6.99812408496433));
#1983=CARTESIAN_POINT('',(0.82562642059628,0.25,6.99812408496433));
#1984=CARTESIAN_POINT('',(0.825626420596281,-0.25,6.99812408496433));
#1985=CARTESIAN_POINT('',(0.204856698775087,-0.25,6.99812408496433));
#1986=CARTESIAN_POINT('',(0.82562642059628,0.25,4.18723408099463));
#1987=CARTESIAN_POINT('',(0.82562642059628,0.25,4.18723408099463));
#1988=CARTESIAN_POINT('',(0.825626420596279,0.25,4.18723408099463));
#1989=CARTESIAN_POINT('',(0.82562642059628,0.25,4.18723408099463));
#1990=CARTESIAN_POINT('',(0.825626420596279,-0.25,4.18723408099463));
#1991=CARTESIAN_POINT('',(0.82562642059628,-0.25,4.18723408099463));
#1992=CARTESIAN_POINT('',(0.533676835869996,0.,4.18723408099463));
#1993=CARTESIAN_POINT('',(0.533676835869996,0.25,4.18723408099463));
#1994=CARTESIAN_POINT('',(0.753122984458883,0.25,3.99467773108284));
#1995=CARTESIAN_POINT('',(0.753122984458883,0.25,3.99467773108284));
#1996=CARTESIAN_POINT('',(0.753122984458883,-0.25,3.99467773108284));
#1997=CARTESIAN_POINT('',(0.533676835869996,-0.25,4.18723408099463));
#1998=CARTESIAN_POINT('',(0.32770793971719,0.25,3.50985501210683));
#1999=CARTESIAN_POINT('',(0.32770793971719,0.25,3.50985501210683));
#2000=CARTESIAN_POINT('',(0.327707939717189,0.25,3.50985501210683));
#2001=CARTESIAN_POINT('',(0.327707939717189,0.25,3.50985501210683));
#2002=CARTESIAN_POINT('',(0.327707939717189,-0.25,3.50985501210683));
#2003=CARTESIAN_POINT('',(0.32770793971719,-0.25,3.50985501210683));
#2004=CARTESIAN_POINT('',(0.840266265093095,0.,3.0601029390541));
#2005=CARTESIAN_POINT('',(0.840266265093095,0.25,3.0601029390541));
#2006=CARTESIAN_POINT('',(0.158362339215426,0.25,3.0601029390541));
#2007=CARTESIAN_POINT('',(0.158362339215426,0.25,3.0601029390541));
#2008=CARTESIAN_POINT('',(0.158362339215426,-0.25,3.0601029390541));
#2009=CARTESIAN_POINT('',(0.840266265093095,-0.25,3.0601029390541));
#2010=CARTESIAN_POINT('',(0.840266265093095,0.,3.0601029390541));
#2011=CARTESIAN_POINT('',(0.840266265093095,-0.25,3.0601029390541));
#2012=CARTESIAN_POINT('',(0.658362339215426,-0.25,3.0601029390541));
#2013=CARTESIAN_POINT('',(0.658362339215426,-0.25,3.0601029390541));
#2014=CARTESIAN_POINT('',(0.658362339215426,0.25,3.0601029390541));
#2015=CARTESIAN_POINT('',(0.840266265093095,0.25,3.0601029390541));
#2016=CARTESIAN_POINT('',(-0.840266265093095,0.,3.0601029390541));
#2017=CARTESIAN_POINT('',(-0.840266265093095,0.25,3.0601029390541));
#2018=CARTESIAN_POINT('',(-0.158362339215426,0.25,3.0601029390541));
#2019=CARTESIAN_POINT('',(-0.840266265093095,-0.25,3.0601029390541));
#2020=CARTESIAN_POINT('',(-0.158362339215426,-0.25,3.0601029390541));
#2021=CARTESIAN_POINT('',(-0.158362339215426,0.25,3.0601029390541));
#2022=CARTESIAN_POINT('',(-0.840266265093095,0.,3.0601029390541));
#2023=CARTESIAN_POINT('',(-0.658362339215426,-0.25,3.0601029390541));
#2024=CARTESIAN_POINT('',(-0.658362339215427,0.25,3.0601029390541));
#2025=CARTESIAN_POINT('',(-0.658362339215427,-0.25,3.0601029390541));
#2026=CARTESIAN_POINT('',(-0.840266265093095,-0.25,3.0601029390541));
#2027=CARTESIAN_POINT('',(-0.840266265093095,0.25,3.0601029390541));
#2028=CARTESIAN_POINT('',(-0.658362339215426,-0.25,3.0601029390541));
#2029=CARTESIAN_POINT('',(-0.658362339215426,0.25,3.0601029390541));
#2030=CARTESIAN_POINT('',(-0.658362339215426,-0.25,3.0601029390541));
#2031=CARTESIAN_POINT('',(-0.158362339215426,0.25,3.0601029390541));
#2032=CARTESIAN_POINT('',(-0.158362339215426,-0.25,3.0601029390541));
#2033=CARTESIAN_POINT('',(-0.158362339215426,0.25,3.0601029390541));
#2034=CARTESIAN_POINT('',(0.158362339215426,0.25,0.140280550448926));
#2035=CARTESIAN_POINT('',(0.158362339215426,0.25,0.140280550448926));
#2036=CARTESIAN_POINT('',(0.158362339215426,-0.25,0.140280550448926));
#2037=CARTESIAN_POINT('',(0.658362339215426,-0.25,0.140280550448926));
#2038=CARTESIAN_POINT('',(0.658362339215426,-0.25,0.140280550448926));
#2039=CARTESIAN_POINT('',(0.658362339215426,0.25,0.140280550448926));
#2040=CARTESIAN_POINT('',(0.655167875203998,0.25,-3.14903447559244));
#2041=CARTESIAN_POINT('',(0.161556803226855,-0.25,-3.06935945051196));
#2042=CARTESIAN_POINT('',(-1.6644654209736,0.,-1.59390868561439));
#2043=CARTESIAN_POINT('',(-1.6644654209736,0.25,-1.59390868561439));
#2044=CARTESIAN_POINT('',(0.347298557592132,0.25,-1.9186326526158));
#2045=CARTESIAN_POINT('',(0.350440582508718,0.25,-1.28928800783518));
#2046=CARTESIAN_POINT('',(0.347298557592132,0.25,-1.9186326526158));
#2047=CARTESIAN_POINT('',(0.347298557592132,-0.25,-1.9186326526158));
#2048=CARTESIAN_POINT('',(-1.6644654209736,-0.25,-1.59390868561439));
#2049=CARTESIAN_POINT('',(0.350440582508717,-0.25,-1.28928800783518));
#2050=CARTESIAN_POINT('',(0.350440582508718,0.25,-1.28928800783518));
#2051=CARTESIAN_POINT('',(0.161556803226855,0.25,-3.06935945051196));
#2052=CARTESIAN_POINT('',(0.161556803226855,0.25,-3.06935945051196));
#2053=CARTESIAN_POINT('',(0.161556803226855,0.25,-3.06935945051196));
#2054=CARTESIAN_POINT('',(0.161556803226855,0.25,-3.06935945051196));
#2055=CARTESIAN_POINT('',(0.161556803226855,-0.25,-3.06935945051196));
#2056=CARTESIAN_POINT('',(0.161556803226855,-0.25,-3.06935945051196));
#2057=CARTESIAN_POINT('',(0.531765107209712,0.125,-3.12911571932232));
#2058=CARTESIAN_POINT('',(0.655167875203998,-0.25,-3.14903447559244));
#2059=CARTESIAN_POINT('',(0.655167875203998,0.25,-3.14903447559244));
#2060=CARTESIAN_POINT('',(0.655167875203998,-0.25,-3.14903447559244));
#2061=CARTESIAN_POINT('',(0.161556803226855,-0.25,-3.06935945051196));
#2062=CARTESIAN_POINT('',(0.655167875203998,0.25,-3.14903447559244));
#2063=CARTESIAN_POINT('',(0.655167875203998,-0.25,-3.14903447559244));
#2064=CARTESIAN_POINT('',(0.840909629569275,-0.25,-1.99830767769629));
#2065=CARTESIAN_POINT('',(0.840909629569275,0.25,-1.99830767769629));
#2066=CARTESIAN_POINT('',(0.840909629569275,-0.25,-1.99830767769629));
#2067=CARTESIAN_POINT('',(0.655167875203998,-0.25,-3.14903447559244));
#2068=CARTESIAN_POINT('',(0.655167875203998,0.25,-3.14903447559244));
#2069=CARTESIAN_POINT('',(-1.6644654209736,0.,-1.59390868561439));
#2070=CARTESIAN_POINT('',(0.844822589000933,-0.25,-1.21454557238696));
#2071=CARTESIAN_POINT('',(0.844822589000933,0.25,-1.21454557238696));
#2072=CARTESIAN_POINT('',(0.844822589000934,-0.25,-1.21454557238696));
#2073=CARTESIAN_POINT('',(-1.6644654209736,-0.25,-1.59390868561439));
#2074=CARTESIAN_POINT('',(-1.6644654209736,0.25,-1.59390868561439));
#2075=CARTESIAN_POINT('',(0.350440582508718,0.25,-1.28928800783518));
#2076=CARTESIAN_POINT('',(0.350440582508718,0.25,-1.28928800783518));
#2077=CARTESIAN_POINT('',(0.182141155942458,0.25,-0.176075577729651));
#2078=CARTESIAN_POINT('',(0.350440582508718,-0.25,-1.28928800783518));
#2079=CARTESIAN_POINT('',(0.182141155942459,-0.25,-0.176075577729651));
#2080=CARTESIAN_POINT('',(0.182141155942458,0.25,-0.176075577729651));
#2081=CARTESIAN_POINT('',(0.844822589000933,-0.25,-1.21454557238697));
#2082=CARTESIAN_POINT('',(0.676523162434674,-0.25,-0.101333142281433));
#2083=CARTESIAN_POINT('',(0.676523162434674,0.25,-0.101333142281433));
#2084=CARTESIAN_POINT('',(0.676523162434674,-0.25,-0.101333142281433));
#2085=CARTESIAN_POINT('',(0.844822589000933,-0.25,-1.21454557238697));
#2086=CARTESIAN_POINT('',(0.844822589000933,0.25,-1.21454557238697));
#2087=CARTESIAN_POINT('',(2.27467100832316,0.,0.140280550448926));
#2088=CARTESIAN_POINT('',(2.27467100832316,0.25,0.140280550448926));
#2089=CARTESIAN_POINT('',(2.27467100832316,-0.25,0.140280550448926));
#2090=CARTESIAN_POINT('',(2.27467100832316,0.,0.140280550448926));
#2091=CARTESIAN_POINT('',(2.27467100832316,-0.25,0.140280550448926));
#2092=CARTESIAN_POINT('',(2.27467100832316,0.25,0.140280550448926));
#2093=CARTESIAN_POINT('',(0.655167875203998,0.25,-3.14903447559244));
#2094=CARTESIAN_POINT('',(0.161556803226855,-0.25,-3.06935945051196));
#2095=MECHANICAL_DESIGN_GEOMETRIC_PRESENTATION_REPRESENTATION('',(#975,
#976,#977,#978,#979,#980,#981,#982,#983,#984,#985,#986,#987,#988,#989,#990,
#991,#992,#993,#994,#995,#996,#997,#998,#999,#1000,#1001,#1002,#1003,#1004,
#1005,#1006,#1007,#1008,#1009,#1010,#1011,#1012,#1013,#1014,#1015,#1016,
#1017,#1018,#1019,#1020,#1021,#1022,#1023,#1024,#1025,#1026,#1027),#2096);
#2096=(
GEOMETRIC_REPRESENTATION_CONTEXT(3)
GLOBAL_UNCERTAINTY_ASSIGNED_CONTEXT((#2097))
GLOBAL_UNIT_ASSIGNED_CONTEXT((#2100,#2099,#2098))
REPRESENTATION_CONTEXT('5010','TOP_LEVEL_ASSEMBLY_PART')
);
#2097=UNCERTAINTY_MEASURE_WITH_UNIT(LENGTH_MEASURE(0.005),#2100,
'DISTANCE_ACCURACY_VALUE','Maximum Tolerance applied to model');
#2098=(
NAMED_UNIT(*)
SI_UNIT($,.STERADIAN.)
SOLID_ANGLE_UNIT()
);
#2099=(
NAMED_UNIT(*)
PLANE_ANGLE_UNIT()
SI_UNIT($,.RADIAN.)
);
#2100=(
LENGTH_UNIT()
NAMED_UNIT(*)
SI_UNIT(.MILLI.,.METRE.)
);
#2101=PRODUCT_DEFINITION_SHAPE('','',#2102);
#2102=PRODUCT_DEFINITION('','',#2104,#2103);
#2103=PRODUCT_DEFINITION_CONTEXT('',#2110,'design');
#2104=PRODUCT_DEFINITION_FORMATION_WITH_SPECIFIED_SOURCE('','',#2106,
 .NOT_KNOWN.);
#2105=PRODUCT_RELATED_PRODUCT_CATEGORY('','',(#2106));
#2106=PRODUCT('5010','5010','5010',(#2108));
#2107=PRODUCT_CATEGORY('','');
#2108=PRODUCT_CONTEXT('',#2110,'mechanical');
#2109=APPLICATION_PROTOCOL_DEFINITION('international standard',
'automotive_design',2010,#2110);
#2110=APPLICATION_CONTEXT(
'core data for automotive mechanical design processes');
ENDSEC;
END-ISO-10303-21;
